<svg width="40" height="40" viewBox="0 0 40 40" fill="none" xmlns="http://www.w3.org/2000/svg">
<path d="M33.0174 1.93282H28.6802V0H26.9411V1.93282H20.8694V0H19.1303V1.93282H13.0591V0H11.32V1.93282H6.98234C6.5021 1.93282 6.11279 2.32212 6.11279 2.80237V39.1304C6.11279 39.6107 6.5021 40 6.98234 40H33.0174C33.4977 40 33.887 39.6107 33.887 39.1304V2.80237C33.887 2.32212 33.4977 1.93282 33.0174 1.93282ZM11.32 3.67192V5.60506H13.0591V3.67192H19.1303V5.60506H20.8694V3.67192H26.9411V5.60506H28.6802V3.67192H32.1479V9.78735H7.85189V3.67192H11.32ZM7.85189 38.2609V11.5264H32.1479V38.2609H7.85189Z" fill="#56586F"/>
</svg>
