<svg width="30" height="25" viewBox="0 0 30 25" fill="none" xmlns="http://www.w3.org/2000/svg">
<g clip-path="url(#clip0_299_457)">
<path fill-rule="evenodd" clip-rule="evenodd" d="M26.6577 1.11813L29.8828 8.55981C29.9594 8.67686 30.0001 8.81327 30 8.95262C29.9983 9.12745 29.9382 9.29684 29.8291 9.43459C29.7527 9.52896 29.6611 9.61036 29.5581 9.67558L29.5239 9.69968C29.3296 9.82206 29.105 9.88957 28.8745 9.89488H28.269V24.4915C28.269 24.6244 28.2155 24.7519 28.1203 24.8459C28.0251 24.9399 27.8959 24.9927 27.7612 24.9927H2.24121C2.10653 24.9927 1.97737 24.9399 1.88213 24.8459C1.7869 24.7519 1.7334 24.6244 1.7334 24.4915V9.89729H1.12549C0.899393 9.88866 0.6796 9.82133 0.488281 9.70209C0.366297 9.63152 0.258672 9.53918 0.170899 9.42977C0.0621272 9.29185 0.00210255 9.12257 2.04162e-07 8.9478C-0.000105181 8.80845 0.0405899 8.67204 0.117188 8.55499L3.34229 1.11572C3.36914 1.07475 3.396 1.02414 3.42285 0.975944C3.62061 0.626513 3.79883 0.30841 4.35059 0.30841H12.9614C14.2886 -0.102803 15.7114 -0.102803 17.0386 0.30841H25.6494C26.2012 0.30841 26.3818 0.626513 26.5771 0.980764C26.5991 1.01932 26.6211 1.06029 26.6577 1.11813V1.11813ZM13.1152 19.5199C13.1936 19.5194 13.2703 19.5419 13.3356 19.5845C13.401 19.6271 13.4521 19.6879 13.4824 19.7592C13.5127 19.8305 13.5209 19.9091 13.5059 19.985C13.4909 20.0609 13.4534 20.1307 13.3982 20.1855C13.343 20.2403 13.2725 20.2778 13.1957 20.293C13.119 20.3083 13.0393 20.3007 12.9669 20.2712C12.8945 20.2417 12.8326 20.1917 12.789 20.1274C12.7454 20.0632 12.7222 19.9876 12.7222 19.9103C12.7222 19.8072 12.7635 19.7082 12.8371 19.6351C12.9108 19.5619 13.0108 19.5205 13.1152 19.5199V19.5199ZM17.2925 4.23409C17.6514 3.47739 17.644 2.85082 17.2925 2.34957L15.1538 6.02462L15.686 6.95965L17.2925 4.23409ZM12.7075 4.23409C12.3486 3.47739 12.356 2.85082 12.7075 2.34957L15.2979 6.79819C15.4166 6.93783 15.4882 7.11051 15.5029 7.29222C15.5006 7.41776 15.4783 7.54216 15.437 7.66093C15.4236 7.72409 15.4232 7.78928 15.4357 7.85262C15.4483 7.91595 15.4737 7.97615 15.5103 8.02964L15.6177 8.14772C15.7129 8.25134 15.7983 8.38871 15.9619 8.35738C16.0718 8.34292 16.1646 8.25134 16.2427 8.11639C16.3414 8.00214 16.4638 7.91011 16.6016 7.84649C16.7436 7.78573 16.896 7.7522 17.0508 7.74768C17.327 7.75973 17.5949 7.84481 17.8264 7.99404C18.0579 8.14327 18.2445 8.35115 18.3667 8.59595C18.7793 9.25867 18.7305 9.81776 18.4253 10.319C18.3316 10.4555 18.2053 10.5671 18.0575 10.644C17.9098 10.7209 17.7451 10.7607 17.5781 10.76C17.3444 10.7567 17.1145 10.7013 16.9056 10.5978C16.6968 10.4943 16.5143 10.3454 16.3721 10.1624C16.1686 9.90747 15.9904 9.6339 15.8398 9.34542L15.0806 8.38148L15.1392 8.36461L12.6978 4.22686L12.7075 4.23409ZM15.0146 6.98857C15.0629 6.98857 15.1101 7.00271 15.1503 7.02919C15.1904 7.05567 15.2217 7.0933 15.2402 7.13734C15.2587 7.18137 15.2635 7.22983 15.2541 7.27657C15.2447 7.32332 15.2214 7.36626 15.1873 7.39996C15.1531 7.43367 15.1096 7.45662 15.0623 7.46592C15.0149 7.47521 14.9658 7.47044 14.9212 7.4522C14.8766 7.43396 14.8385 7.40307 14.8117 7.36344C14.7848 7.32381 14.7705 7.27722 14.7705 7.22956C14.7705 7.16565 14.7962 7.10435 14.842 7.05916C14.8878 7.01396 14.9499 6.98857 15.0146 6.98857ZM16.5576 8.51161C16.6397 8.39499 16.7613 8.31105 16.9004 8.27484C17.0395 8.23863 17.1872 8.25251 17.3169 8.314C17.5657 8.41147 17.7738 8.58892 17.9077 8.81766C18.0703 9.07298 18.148 9.37211 18.1299 9.67317C18.0664 10.2515 17.5537 10.3624 17.0898 10.1069C16.8786 9.99249 16.7081 9.81665 16.6016 9.60328C16.5168 9.4418 16.4599 9.26751 16.4331 9.08757C16.3963 8.88908 16.4345 8.68414 16.5405 8.51161H16.5576ZM14.5605 7.86576C14.547 7.92412 14.5231 7.97962 14.4897 8.02964L14.3823 8.14772C14.2871 8.25134 14.2017 8.38871 14.0381 8.35738C13.9282 8.34292 13.8354 8.25134 13.7573 8.11639C13.6567 8.00622 13.5335 7.91834 13.396 7.85853C13.2525 7.79273 13.0975 7.75508 12.9395 7.74768C12.6632 7.75973 12.3954 7.84481 12.1639 7.99404C11.9324 8.14327 11.7458 8.35115 11.6235 8.59595C11.2109 9.25867 11.2598 9.81776 11.5649 10.319C11.6586 10.455 11.7845 10.5663 11.9318 10.6431C12.079 10.72 12.2431 10.7601 12.4097 10.76C12.643 10.7564 12.8724 10.7007 13.0808 10.5972C13.2892 10.4938 13.4713 10.3451 13.6133 10.1624C13.8226 9.90869 14.0058 9.63502 14.1602 9.34542L14.8926 8.41521L14.8682 8.37425L14.5703 7.87781L14.5605 7.86576ZM13.4424 8.51161C13.3608 8.39783 13.2414 8.3158 13.105 8.27972C12.9686 8.24363 12.8236 8.25576 12.6953 8.314C12.4466 8.41147 12.2384 8.58892 12.1045 8.81766C11.9419 9.07298 11.8642 9.37211 11.8823 9.67317C11.936 10.2515 12.4585 10.36 12.9126 10.1069C13.1239 9.99249 13.2943 9.81665 13.4009 9.60328C13.4856 9.4418 13.5426 9.26751 13.5693 9.08757C13.6062 8.88908 13.5679 8.68414 13.4619 8.51161H13.4424ZM16.8066 15.5002H13.1958C12.8852 15.5009 12.5875 15.6229 12.3679 15.8397C12.1482 16.0565 12.0246 16.3504 12.0239 16.657V23.9974H17.9785V16.6618C17.9779 16.3552 17.8542 16.0614 17.6346 15.8446C17.4149 15.6278 17.1172 15.5057 16.8066 15.5051V15.5002ZM21.5308 16.1461H25.1465C25.2812 16.1461 25.4103 16.1989 25.5056 16.2929C25.6008 16.3869 25.6543 16.5144 25.6543 16.6473V20.1898C25.6553 20.2563 25.6429 20.3222 25.6178 20.3839C25.5927 20.4455 25.5554 20.5017 25.5082 20.549C25.4609 20.5963 25.4046 20.6339 25.3425 20.6595C25.2804 20.6851 25.2138 20.6983 25.1465 20.6983H21.5308C21.3961 20.6983 21.2669 20.6455 21.1717 20.5515C21.0765 20.4575 21.0229 20.33 21.0229 20.1971V16.6546C21.022 16.5881 21.0344 16.5222 21.0595 16.4605C21.0846 16.3989 21.1218 16.3428 21.1691 16.2954C21.2163 16.2481 21.2726 16.2106 21.3347 16.1849C21.3968 16.1593 21.4635 16.1461 21.5308 16.1461V16.1461ZM24.6387 17.1486H22.0386V19.6958H24.6411V17.1558L24.6387 17.1486ZM4.85596 16.1461H8.47168C8.60636 16.1461 8.73552 16.1989 8.83076 16.2929C8.92599 16.3869 8.97949 16.5144 8.97949 16.6473V20.1898C8.97949 20.3228 8.92599 20.4503 8.83076 20.5443C8.73552 20.6383 8.60636 20.6911 8.47168 20.6911H4.85596C4.72128 20.6911 4.59211 20.6383 4.49688 20.5443C4.40165 20.4503 4.34814 20.3228 4.34814 20.1898V16.6546C4.34717 16.5881 4.35959 16.5222 4.38468 16.4605C4.40976 16.3989 4.44701 16.3428 4.49426 16.2954C4.54152 16.2481 4.59783 16.2106 4.65992 16.1849C4.72201 16.1593 4.78865 16.1461 4.85596 16.1461V16.1461ZM7.96387 17.1486H5.37109V19.6958H7.96631V17.1558L7.96387 17.1486ZM20.9546 9.89729C20.3707 10.9527 19.5096 11.8335 18.4619 12.4471C17.4141 13.0607 16.2183 13.3845 15 13.3845C13.7817 13.3845 12.5859 13.0607 11.5381 12.4471C10.4904 11.8335 9.62933 10.9527 9.04541 9.89729H2.74902V23.9974H11.0083V16.6618C11.0083 16.0866 11.2398 15.5349 11.6519 15.1282C12.0639 14.7214 12.6228 14.4929 13.2056 14.4929H16.8188C17.4016 14.4929 17.9605 14.7214 18.3725 15.1282C18.7846 15.5349 19.0161 16.0866 19.0161 16.6618V23.9974H27.2754V9.89729H20.9546ZM15 0.739776C16.194 0.7393 17.3612 1.0884 18.3541 1.74291C19.347 2.39742 20.1209 3.32792 20.578 4.4167C21.035 5.50547 21.1546 6.70359 20.9216 7.85947C20.6886 9.01534 20.1135 10.077 19.2691 10.9102C18.4247 11.7434 17.3488 12.3106 16.1777 12.5401C15.0066 12.7696 13.7929 12.6511 12.6901 12.1996C11.5872 11.748 10.6449 10.9837 9.98219 10.0034C9.31952 9.02302 8.96632 7.87069 8.96729 6.69216C8.96729 5.11285 9.60287 3.59822 10.7342 2.48148C11.8656 1.36474 13.4 0.737367 15 0.737367V0.739776Z" fill="white"/>
</g>
<defs>
<clipPath id="clip0_299_457">
<rect width="30" height="25" fill="white"/>
</clipPath>
</defs>
</svg>
