<svg width="24" height="27" viewBox="0 0 24 27" fill="none" xmlns="http://www.w3.org/2000/svg">
<path d="M1.46373 20.2555C1.46373 18.8901 1.46373 2.90289 1.46373 1.53627C2.74983 1.53627 16.47 1.53627 17.7561 1.53627C17.7561 2.01947 17.7561 4.33298 17.7561 7.17732C18.0707 7.11628 18.3934 7.07482 18.7242 7.07482C18.8937 7.07482 19.0538 7.11142 19.221 7.12731V0H0V21.7918H12.0881V20.2555C7.68888 20.2555 2.25073 20.2555 1.46373 20.2555Z" fill="#898B9A"/>
<path d="M3.54541 11.7008H13.4734C13.5709 11.126 13.7636 10.5916 14.0166 10.0913H3.54541V11.7008Z" fill="#898B9A"/>
<path d="M15.673 5.05884H3.54541V6.6683H15.673V5.05884Z" fill="#898B9A"/>
<path d="M3.54541 16.734H13.8379C14.1129 16.5583 14.4066 16.4155 14.7212 16.3277C14.4228 15.9628 14.1779 15.5528 13.969 15.1245H3.54541V16.734Z" fill="#898B9A"/>
<path d="M18.7252 16.8948C20.9353 16.8948 22.7159 15.0169 22.7159 12.7009C22.7159 10.3826 20.9353 8.50586 18.7252 8.50586C16.5244 8.50586 14.7427 10.3826 14.7427 12.7009C14.7427 15.0169 16.5244 16.8948 18.7252 16.8948Z" fill="#898B9A"/>
<path d="M21.9282 17.5762H15.5324C14.3902 17.5762 13.4546 18.6768 13.4546 20.0325V26.7827C13.4546 26.8571 13.4871 26.923 13.4917 26.9999H23.9629C23.9676 26.9243 24.0001 26.8571 24.0001 26.7827V20.0325C24.0047 18.6804 23.0715 17.5762 21.9282 17.5762Z" fill="#898B9A"/>
</svg>
