<svg width="32" height="36" viewBox="0 0 32 36" fill="none" xmlns="http://www.w3.org/2000/svg">
<path d="M1.95164 27.0073C1.95164 25.1868 1.95164 3.87052 1.95164 2.04836C3.66644 2.04836 21.96 2.04836 23.6748 2.04836C23.6748 2.69263 23.6748 5.7773 23.6748 9.56976C24.0943 9.48838 24.5245 9.43309 24.9656 9.43309C25.1915 9.43309 25.4051 9.48189 25.628 9.50309V0H0V29.0557H16.1175V27.0073C10.2518 27.0073 3.00097 27.0073 1.95164 27.0073Z" fill="#FF8A00"/>
<path d="M4.72705 15.601H17.9644C18.0944 14.8347 18.3513 14.1221 18.6887 13.4551H4.72705V15.601Z" fill="#FF8A00"/>
<path d="M20.8972 6.74512H4.72705V8.89107H20.8972V6.74512Z" fill="#FF8A00"/>
<path d="M4.72705 22.312H18.4503C18.8171 22.0777 19.2087 21.8873 19.6281 21.7702C19.2303 21.2837 18.9038 20.7371 18.6252 20.166H4.72705V22.312Z" fill="#FF8A00"/>
<path d="M24.9668 22.5266C27.9136 22.5266 30.2877 20.0227 30.2877 16.9347C30.2877 13.8436 27.9135 11.3413 24.9668 11.3413C22.0324 11.3413 19.6567 13.8436 19.6567 16.9347C19.6567 20.0227 22.0324 22.5266 24.9668 22.5266Z" fill="#FF8A00"/>
<path d="M29.2375 23.4351H20.7098C19.1869 23.4351 17.9395 24.9026 17.9395 26.7101V35.7104C17.9395 35.8097 17.9828 35.8975 17.989 36H31.9506C31.9567 35.8992 32.0001 35.8097 32.0001 35.7104V26.7101C32.0063 24.9074 30.762 23.4351 29.2375 23.4351Z" fill="#FF8A00"/>
</svg>
