<svg width="40" height="40" viewBox="0 0 40 40" fill="none" xmlns="http://www.w3.org/2000/svg">
<path fill-rule="evenodd" clip-rule="evenodd" d="M19.7408 36.1032C13.5878 36.1032 8.33325 35.1457 8.33325 31.311C8.33325 27.4765 13.5545 23.9365 19.7408 23.9365C25.8939 23.9365 31.1484 27.4422 31.1484 31.2769C31.1484 35.1099 25.9273 36.1032 19.7408 36.1032Z" stroke="#898B9A" stroke-width="2" stroke-linecap="round" stroke-linejoin="round"/>
<path fill-rule="evenodd" clip-rule="evenodd" d="M19.7286 18.6227C23.7666 18.6227 27.0392 15.35 27.0392 11.3121C27.0392 7.27425 23.7666 4 19.7286 4C15.6908 4 12.4165 7.27425 12.4165 11.3121C12.4029 15.3364 15.6529 18.6092 19.6771 18.6227C19.6952 18.6227 19.7119 18.6227 19.7286 18.6227Z" stroke="#898B9A" stroke-width="2" stroke-linecap="round" stroke-linejoin="round"/>
</svg>
