<svg width="37" height="36" viewBox="0 0 37 36" fill="none" xmlns="http://www.w3.org/2000/svg">
<g clip-path="url(#clip0_309_326)">
<path fill-rule="evenodd" clip-rule="evenodd" d="M9.24738 19.0054C6.62414 18.06 5.16293 16.5756 4.78136 14.5919L21.3418 19.0256C21.9885 19.1076 22.5479 19.3191 22.9872 19.7113C23.3977 20.0782 23.4281 20.3315 23.7041 20.7308C23.9354 21.0661 24.2548 21.3244 24.744 21.4338L25.2716 21.4582C25.7456 21.4813 26.237 21.5827 26.5716 21.1532C26.7949 20.8654 26.7927 20.4358 26.6316 19.9063C26.6077 19.4048 26.6829 18.9234 26.8607 18.4622C27.0334 18.0168 27.3029 17.5901 27.6737 17.1843C28.9571 16.0317 30.5824 15.5489 32.7474 16.1274C35.2731 16.7282 36.485 18.1535 36.9562 20.043C37.1275 21.3064 36.782 22.2842 36.0283 23.0368C34.8786 24.183 33.392 24.5644 31.808 24.4284C30.8049 24.3428 29.7694 24.0708 28.6377 23.7441L24.606 23.2541L24.7043 23.0786L9.24738 19.0054ZM9.9816 27.5237C10.1442 27.6856 10.1413 27.9511 9.97509 28.1159C9.80961 28.2814 9.54295 28.2835 9.38107 28.1223L4.24732 23.0109L3.52828 23.7269L8.75236 28.9282C8.93086 29.2196 8.59193 29.4858 8.37297 29.4319C5.04152 28.118 1.19265 25.3645 0.211286 22.2432C-0.167386 21.0395 -0.0669366 21.1337 0.746774 20.3228L3.9084 17.175C4.18806 17.624 4.52482 18.0463 4.92156 18.4413C5.74972 19.2652 6.82865 19.9487 8.16773 20.4869L12.6085 24.9083C12.7718 25.0709 12.7689 25.3364 12.6027 25.5026C12.4357 25.6681 12.1684 25.671 12.0058 25.5084L6.87201 20.3977L6.16236 21.1042L11.2954 26.2156C11.4587 26.3775 11.4558 26.6437 11.2896 26.81C11.1227 26.9754 10.856 26.9783 10.6927 26.8157L5.55894 21.705L4.84785 22.413L9.9816 27.5237ZM7.58888 13.5105L14.4122 6.7169L15.726 11.5822L15.3538 11.9528L15.9999 12.596L16.4436 14.2387L14.7511 12.5536L14.0408 13.2601L16.7572 15.9648L15.1074 15.523L13.4373 13.8609L12.7277 14.5675L13.1649 15.0035L7.58888 13.5105ZM18.0927 3.05243L20.4117 0.743522C21.2261 -0.0666474 21.1315 -0.166659 22.3405 0.210364C25.4753 1.18746 28.241 5.01957 29.5598 8.33652C29.6147 8.55453 29.3473 8.89198 29.0547 8.71426L23.8306 3.51292L23.2308 4.11011L28.3645 9.2208C28.5271 9.38269 28.5242 9.64819 28.3587 9.81295C28.1925 9.97772 27.9259 9.9806 27.764 9.81871L22.6303 4.70803L21.9177 5.41746L27.0515 10.5281C27.2133 10.69 27.2112 10.9555 27.045 11.1203C26.8795 11.2851 26.6128 11.288 26.4502 11.1261L21.3172 6.01538L20.9877 6.34347C20.5273 5.43905 19.9861 4.67925 19.3646 4.06119C18.9686 3.66617 18.5444 3.33016 18.0927 3.05243ZM21.5708 7.68392L25.7391 11.8341C25.9024 11.9967 25.8995 12.2629 25.7333 12.4284C25.5671 12.5946 25.2997 12.5975 25.1364 12.4349L22.0268 9.3388L21.6496 7.91776C21.6301 7.84365 21.6055 7.7717 21.5773 7.70263L21.5708 7.68392ZM22.5392 11.2656L24.4253 13.1429C24.5872 13.3047 24.585 13.5702 24.4188 13.735C24.2533 13.8998 23.9867 13.9027 23.8241 13.7408L22.9713 12.8917L22.5392 11.2656ZM15.3264 22.4368C15.3835 22.5864 15.3502 22.7641 15.2274 22.8865C15.0619 23.052 14.7952 23.0541 14.6326 22.8929L13.7604 22.0245L15.3264 22.4368ZM11.8236 21.5136L13.9208 23.6017C14.0834 23.7635 14.0805 24.029 13.9143 24.1938C13.7488 24.3586 13.4821 24.3615 13.3195 24.1996L10.1897 21.0834L11.8236 21.5136ZM19.9319 8.36746C18.9816 5.75563 17.4907 4.3015 15.4984 3.92088L19.1788 17.5477L22.6259 18.5054L19.9319 8.36746ZM22.1453 23.2469C22.2451 23.4024 22.3217 23.583 22.3701 23.7966L22.3954 24.3226C22.4178 24.7939 22.5197 25.2832 22.0883 25.6163C21.7992 25.8393 21.3678 25.8365 20.8359 25.676C20.3329 25.653 19.8487 25.7271 19.3862 25.9048C18.9382 26.0768 18.5104 26.3444 18.1028 26.7143C16.9451 27.9921 16.4602 29.6096 17.0405 31.7659C17.6446 34.2806 19.0762 35.4873 20.9739 35.9564C22.2429 36.1269 23.225 35.783 23.9802 35.0325C25.1321 33.8878 25.5144 32.4077 25.3785 30.8306C25.2918 29.8312 25.0186 28.8001 24.6905 27.6734L24.2136 23.7765L24.0597 23.7369L24.0221 23.7578L24.0134 23.7254L22.1453 23.2469ZM21.0614 27.3618C20.0186 27.1445 19.2583 27.7698 18.8284 28.6627C18.4829 29.3786 18.4237 30.2319 18.634 31.2141C18.811 32.0422 19.3718 33.1035 20.1421 33.741C21.633 34.975 23.1072 34.0223 23.5719 32.3718C23.7786 31.6379 23.7605 30.8723 23.4989 30.0729C23.3226 29.5311 23.0494 28.9519 22.6758 28.4648C22.2617 27.9266 21.7262 27.5007 21.0614 27.3618ZM21.1351 20.1336C21.4545 19.8156 21.9719 19.8156 22.2913 20.1336C22.6107 20.4516 22.6107 20.9675 22.2913 21.2848C21.9719 21.6029 21.4545 21.6029 21.1351 21.2848C20.8157 20.9675 20.8157 20.4516 21.1351 20.1336ZM28.3248 20.1307C28.1065 19.0925 28.7345 18.3348 29.6306 17.9067C30.3497 17.5635 31.2067 17.5038 32.1932 17.7132C33.0249 17.8902 34.0909 18.4478 34.7311 19.2148C35.9712 20.6992 35.0137 22.167 33.3559 22.6296C32.6195 22.8354 31.8506 22.8174 31.047 22.5576C30.5036 22.3814 29.9219 22.1094 29.4326 21.7374C28.8913 21.3258 28.4635 20.792 28.3248 20.1307Z" fill="#FF8A00"/>
</g>
<defs>
<clipPath id="clip0_309_326">
<rect width="37" height="36" fill="white"/>
</clipPath>
</defs>
</svg>
