<svg width="24" height="24" viewBox="0 0 24 24" fill="none" xmlns="http://www.w3.org/2000/svg">
<path d="M19.2974 20.518C19.4004 20.1453 19.4239 19.7505 19.346 19.3564C19.1335 18.2955 18.2814 17.5118 17.2727 17.4001C17.2654 17.3971 17.2639 17.3912 17.2557 17.3898C16.1375 17.2281 15.2994 15.5415 14.7465 14.8754C14.1951 14.2085 13.1966 13.127 12.685 12.6308C12.6541 12.5999 12.6041 12.533 12.5379 12.436L14.1149 1.75342L11.4483 10.2869C11.4483 10.2869 11.4233 10.3652 11.38 10.5016C9.63607 7.46669 6.81913 2.28645 6.81913 2.28645C6.81913 2.28645 10.3055 12.7278 10.4267 13.0902C9.79668 14.6128 9.12659 16.553 7.57416 16.6325C7.56899 16.634 7.56975 16.6398 7.56496 16.6428C6.38023 16.6987 5.4292 17.8014 5.4292 19.1586C5.4292 20.5511 6.42984 21.6847 7.65764 21.6847C8.41267 21.6847 9.11809 21.162 9.75223 20.6305C9.91247 19.9813 9.88602 19.6953 9.88602 19.1586C9.88602 18.8072 9.82199 18.4741 9.70772 18.1705C9.51953 17.4177 11.309 13.7196 11.6516 13.4946C13.3635 14.546 15.5537 17.242 15.0221 18.6241C15.0243 18.6249 15.0302 18.6249 15.0332 18.6256C14.7736 19.1255 14.6832 19.6983 14.7979 20.2672C15.0274 21.4142 16.0014 22.2465 17.1138 22.2465C17.2601 22.2465 17.4071 22.2324 17.5505 22.2031C18.0681 22.0995 18.5166 21.8127 18.8489 21.3995C19.0746 21.451 19.3827 21.5569 19.601 21.7738C20.3818 22.6119 21.1251 22.0024 21.2956 21.7738C21.4581 21.5569 19.6783 21.3715 19.2974 20.518ZM7.65771 20.923C6.84935 20.923 6.19134 20.132 6.19134 19.1593C6.19134 18.1866 6.84935 17.3941 7.65771 17.3941C7.92498 17.3941 8.17342 17.4882 8.38963 17.6382C8.43414 17.6735 8.47859 17.7073 8.52342 17.7411C8.88658 18.0631 9.1252 18.5756 9.1252 19.1586C9.1252 20.132 8.46644 20.923 7.65771 20.923ZM11.3782 12.7013C11.1117 12.7013 10.8952 12.4844 10.8952 12.2179C10.8952 11.9514 11.1117 11.7345 11.3782 11.7345C11.6447 11.7345 11.8616 11.9514 11.8616 12.2179C11.8616 12.4844 11.6458 12.7013 11.3782 12.7013ZM18.3784 20.7673C18.1519 21.1304 17.8034 21.3745 17.4006 21.4554C17.3065 21.4745 17.2095 21.4841 17.1138 21.4841C16.3624 21.4841 15.7038 20.9084 15.545 20.1174C15.4567 19.6748 15.5346 19.2263 15.7655 18.8565C15.9927 18.4941 16.3397 18.2492 16.7433 18.1691C16.8381 18.15 16.9345 18.1397 17.03 18.1397C17.7815 18.1397 18.4409 18.7153 18.5997 19.5064C18.6879 19.949 18.6086 20.3967 18.3784 20.7673Z" fill="black"/>
<path d="M8.47342 8.434L8.26792 7.751C7.71468 7.71278 7.17724 7.67676 6.66594 7.63156C6.05314 7.57496 5.4749 7.51942 4.94332 7.45143C4.4125 7.38085 3.92688 7.30624 3.50089 7.22206C3.07558 7.13454 2.70688 7.04489 2.40946 6.95183C2.11209 6.85512 1.88235 6.7666 1.73017 6.69564C1.57831 6.62173 1.49854 6.5791 1.49854 6.5791C1.49854 6.5791 1.56987 6.63388 1.7092 6.73021C1.85149 6.82358 2.06537 6.95775 2.35436 7.09154C2.93184 7.36429 3.80272 7.65252 4.86878 7.88076C5.40181 7.99654 5.98224 8.10427 6.59832 8.19468C7.19456 8.28327 7.8231 8.36783 8.47342 8.434Z" fill="black"/>
<path d="M10.7317 8.63464C11.0391 8.65485 11.3467 8.67506 11.657 8.69565L11.8868 7.95856C11.478 7.93653 11.0707 7.91481 10.6663 7.8939C10.5458 7.88616 10.427 7.87955 10.3071 7.87256L10.7317 8.63464Z" fill="black"/>
<path d="M23.9667 10.0941C23.9469 10.054 23.9072 10.0021 23.8513 9.93673C23.7366 9.80955 23.5352 9.64667 23.2463 9.50293C22.9595 9.35774 22.5941 9.21765 22.1648 9.09563C21.7376 8.97066 21.2487 8.85632 20.7135 8.76074C20.1768 8.66114 19.5945 8.5718 18.9761 8.49719C18.3593 8.42113 17.7065 8.34866 17.0323 8.29389C16.3581 8.23911 15.6612 8.1759 14.9524 8.13655C14.4716 8.10715 13.9857 8.07768 13.4982 8.04834L13.3989 8.79751C13.9054 8.82251 14.4113 8.84637 14.9113 8.87137C15.6185 8.91034 16.3148 8.92872 16.986 8.96405C17.6587 9.00006 18.3079 9.0265 18.9226 9.06403C19.5364 9.10483 20.1165 9.1438 20.6502 9.19417C21.7163 9.29673 22.5985 9.43902 23.1852 9.64226C23.4763 9.74558 23.6926 9.86137 23.8219 9.96683C23.8852 10.0202 23.9322 10.0646 23.9572 10.0999C23.9851 10.133 23.9998 10.1514 23.9998 10.1514C23.9998 10.1514 23.9895 10.1315 23.9667 10.0941Z" fill="black"/>
<path d="M2.80796 6.34316C3.23949 6.48834 3.73468 6.62547 4.28207 6.74195C4.82869 6.86032 5.42418 6.96622 6.05719 7.05002C6.68982 7.13565 7.35809 7.21397 8.05066 7.26768C8.07421 7.26912 8.09883 7.27057 8.12307 7.27284L7.91832 6.59059C7.29412 6.55899 6.69052 6.52958 6.11738 6.4862C5.49029 6.43621 4.89915 6.38288 4.35655 6.31306C3.81439 6.2399 3.31996 6.15944 2.88546 6.06386C2.45242 5.96677 2.07931 5.86283 1.77785 5.7551C1.47677 5.64813 1.24892 5.54154 1.09523 5.46472C0.943746 5.38017 0.863281 5.33496 0.863281 5.33496C0.863281 5.33496 0.935686 5.39232 1.07175 5.49929C1.21473 5.59776 1.42502 5.74924 1.71798 5.89443C2.00917 6.04094 2.37491 6.20086 2.80796 6.34316Z" fill="black"/>
<path d="M12.2683 6.73278C11.5794 6.71294 10.892 6.69343 10.2145 6.67391C10.0182 6.66616 9.82302 6.65955 9.62891 6.65332L10.045 7.40098C10.0917 7.40319 10.1384 7.40615 10.185 7.40759C10.7956 7.43259 11.4147 7.45758 12.0341 7.48296L12.2683 6.73278Z" fill="black"/>
<path d="M18.7388 7.13783C18.1043 7.05951 17.436 6.99189 16.7435 6.94448C16.0509 6.89707 15.3363 6.84594 14.6099 6.8195C14.2967 6.80735 13.982 6.79558 13.6659 6.78418L13.5674 7.52857C13.9085 7.53776 14.2475 7.54582 14.5841 7.55501C15.3076 7.58076 16.02 7.58662 16.7067 7.61457C17.3948 7.64328 18.058 7.6657 18.6859 7.70391C19.3123 7.74616 19.9048 7.79288 20.4481 7.85609C20.9907 7.92226 21.484 8.00204 21.9149 8.10095C22.3457 8.20168 22.7148 8.31602 23.003 8.44648C23.2912 8.57662 23.5044 8.71299 23.6323 8.82582C23.7014 8.87763 23.7433 8.92838 23.7756 8.95885C23.8072 8.99046 23.8234 9.00702 23.8234 9.00702C23.8234 9.00702 23.8094 8.98901 23.783 8.95224C23.7557 8.91692 23.7205 8.85887 23.6602 8.79566C23.547 8.663 23.3558 8.48249 23.0736 8.31155C22.5118 7.96161 21.6135 7.64473 20.5172 7.42342C19.9695 7.31091 19.3711 7.21313 18.7388 7.13783Z" fill="black"/>
<path d="M9.32163 5.92698C10.0476 5.95639 10.7854 5.98655 11.5225 6.01595C11.843 6.02401 12.1639 6.03251 12.483 6.04057L12.7146 5.29914C12.3257 5.28409 11.9356 5.26973 11.5457 5.25462C10.8101 5.23366 10.0745 5.21238 9.35034 5.1921C9.16725 5.18549 8.98529 5.1785 8.80371 5.17334L9.22089 5.92182C9.2547 5.92402 9.28851 5.92554 9.32163 5.92698Z" fill="black"/>
<path d="M3.41948 5.26118C3.96611 5.37924 4.56159 5.48469 5.1946 5.56887C5.82724 5.65488 6.49626 5.7332 7.18808 5.78647C7.3524 5.79937 7.52114 5.81146 7.68729 5.82437L7.47814 5.12777C7.39616 5.12481 7.31236 5.12261 7.23114 5.11782C6.54442 5.08326 5.88201 5.05234 5.25486 5.00499C4.62776 4.95463 4.03593 4.90136 3.49333 4.8311C2.95036 4.75831 2.45599 4.67747 2.02218 4.5819C1.58914 4.48481 1.21603 4.38118 0.914572 4.27421C0.613493 4.16724 0.385637 4.06026 0.231193 3.98345C0.0805272 3.89921 0 3.854 0 3.854C0 3.854 0.0724052 3.91136 0.208464 4.01795C0.350756 4.11756 0.561739 4.26791 0.854319 4.41348C1.14583 4.56087 1.51157 4.71966 1.94386 4.8627C2.37577 5.00751 2.87209 5.14426 3.41948 5.26118Z" fill="black"/>
<path d="M13.7573 6.07517C14.4683 6.09903 15.1674 6.10602 15.8431 6.1329C16.5305 6.16086 17.1937 6.18403 17.8215 6.22262C18.4487 6.26487 19.0405 6.31159 19.5831 6.3748C20.1257 6.44097 20.6198 6.52074 21.0506 6.61928C21.4807 6.72033 21.8505 6.83467 22.1387 6.96481C22.4269 7.09495 22.6386 7.23132 22.768 7.34415C22.8364 7.39634 22.8798 7.44671 22.9121 7.47756C22.943 7.50917 22.9591 7.52573 22.9591 7.52573C22.9591 7.52573 22.9459 7.50772 22.9195 7.47057C22.8922 7.43525 22.8562 7.37645 22.796 7.31399C22.6827 7.18165 22.4923 7.00076 22.2093 6.8302C21.6484 6.47913 20.7492 6.163 19.6537 5.94169C19.1045 5.82886 18.5075 5.73109 17.8737 5.65497C17.2393 5.57664 16.5717 5.50864 15.8784 5.46123C15.2204 5.41565 14.5426 5.36786 13.853 5.3418L13.7573 6.07517Z" fill="black"/>
</svg>
