<svg width="37" height="36" viewBox="0 0 37 36" fill="none" xmlns="http://www.w3.org/2000/svg">
<g clip-path="url(#clip0_299_670)">
<path fill-rule="evenodd" clip-rule="evenodd" d="M9.24762 19.0054C6.62438 18.06 5.16317 16.5756 4.78161 14.5919L21.342 19.0256C21.9888 19.1076 22.5481 19.3191 22.9875 19.7113C23.398 20.0782 23.4283 20.3315 23.7044 20.7308C23.9356 21.0661 24.255 21.3244 24.7443 21.4338L25.2718 21.4582C25.7459 21.4813 26.2373 21.5827 26.5719 21.1532C26.7952 20.8654 26.793 20.4358 26.6318 19.9063C26.608 19.4048 26.6832 18.9234 26.8609 18.4622C27.0336 18.0168 27.3032 17.5901 27.6739 17.1843C28.9573 16.0317 30.5826 15.5489 32.7477 16.1274C35.2734 16.7282 36.4853 18.1535 36.9564 20.043C37.1277 21.3064 36.7823 22.2842 36.0285 23.0368C34.8788 24.183 33.3923 24.5644 31.8082 24.4284C30.8052 24.3428 29.7696 24.0708 28.6379 23.7441L24.6062 23.2541L24.7045 23.0786L9.24762 19.0054ZM9.98184 27.5237C10.1444 27.6856 10.1415 27.9511 9.97534 28.1159C9.80985 28.2814 9.54319 28.2835 9.38132 28.1223L4.24757 23.0109L3.52852 23.7269L8.7526 28.9282C8.9311 29.2196 8.59217 29.4858 8.37321 29.4319C5.04176 28.118 1.1929 25.3645 0.21153 22.2432C-0.167142 21.0395 -0.0666925 21.1337 0.747018 20.3228L3.90864 17.175C4.18831 17.624 4.52507 18.0463 4.9218 18.4413C5.74997 19.2652 6.82889 19.9487 8.16798 20.4869L12.6087 24.9083C12.772 25.0709 12.7691 25.3364 12.6029 25.5026C12.436 25.6681 12.1686 25.671 12.006 25.5084L6.87225 20.3977L6.1626 21.1042L11.2956 26.2156C11.459 26.3775 11.4561 26.6437 11.2899 26.81C11.1229 26.9754 10.8563 26.9783 10.6929 26.8157L5.55919 21.705L4.84809 22.413L9.98184 27.5237ZM7.58913 13.5105L14.4124 6.7169L15.7262 11.5822L15.3541 11.9528L16.0001 12.596L16.4438 14.2387L14.7514 12.5536L14.041 13.2601L16.7575 15.9648L15.1076 15.523L13.4376 13.8609L12.7279 14.5675L13.1651 15.0035L7.58913 13.5105ZM18.0929 3.05243L20.4119 0.743522C21.2264 -0.0666474 21.1317 -0.166659 22.3407 0.210364C25.4756 1.18746 28.2412 5.01957 29.56 8.33652C29.615 8.55453 29.3476 8.89198 29.0549 8.71426L23.8308 3.51292L23.231 4.11011L28.3648 9.2208C28.5274 9.38269 28.5245 9.64819 28.359 9.81295C28.1928 9.97772 27.9261 9.9806 27.7642 9.81871L22.6305 4.70803L21.918 5.41746L27.0517 10.5281C27.2136 10.69 27.2114 10.9555 27.0452 11.1203C26.8797 11.2851 26.6131 11.288 26.4505 11.1261L21.3174 6.01538L20.9879 6.34347C20.5276 5.43905 19.9863 4.67925 19.3648 4.06119C18.9688 3.66617 18.5446 3.33016 18.0929 3.05243ZM21.5711 7.68392L25.7394 11.8341C25.9027 11.9967 25.8998 12.2629 25.7336 12.4284C25.5674 12.5946 25.3 12.5975 25.1367 12.4349L22.0271 9.3388L21.6498 7.91776C21.6303 7.84365 21.6058 7.7717 21.5776 7.70263L21.5711 7.68392ZM22.5394 11.2656L24.4256 13.1429C24.5874 13.3047 24.5853 13.5702 24.4191 13.735C24.2536 13.8998 23.9869 13.9027 23.8243 13.7408L22.9716 12.8917L22.5394 11.2656ZM15.3266 22.4368C15.3837 22.5864 15.3505 22.7641 15.2276 22.8865C15.0621 23.052 14.7955 23.0541 14.6329 22.8929L13.7606 22.0245L15.3266 22.4368ZM11.8239 21.5136L13.921 23.6017C14.0836 23.7635 14.0807 24.029 13.9145 24.1938C13.7491 24.3586 13.4824 24.3615 13.3198 24.1996L10.19 21.0834L11.8239 21.5136ZM19.9321 8.36746C18.9818 5.75563 17.491 4.3015 15.4986 3.92088L19.1791 17.5477L22.6262 18.5054L19.9321 8.36746ZM22.1456 23.2469C22.2453 23.4024 22.3219 23.583 22.3703 23.7966L22.3956 24.3226C22.418 24.7939 22.5199 25.2832 22.0885 25.6163C21.7994 25.8393 21.368 25.8365 20.8361 25.676C20.3332 25.653 19.849 25.7271 19.3865 25.9048C18.9384 26.0768 18.5106 26.3444 18.1031 26.7143C16.9454 27.9921 16.4605 29.6096 17.0407 31.7659C17.6449 34.2806 19.0765 35.4873 20.9742 35.9564C22.2432 36.1269 23.2252 35.783 23.9804 35.0325C25.1323 33.8878 25.5146 32.4077 25.3788 30.8306C25.292 29.8312 25.0189 28.8001 24.6908 27.6734L24.2138 23.7765L24.0599 23.7369L24.0223 23.7578L24.0137 23.7254L22.1456 23.2469ZM21.0616 27.3618C20.0188 27.1445 19.2586 27.7698 18.8286 28.6627C18.4832 29.3786 18.4239 30.2319 18.6342 31.2141C18.8113 32.0422 19.372 33.1035 20.1424 33.741C21.6332 34.975 23.1074 34.0223 23.5721 32.3718C23.7788 31.6379 23.7607 30.8723 23.4991 30.0729C23.3228 29.5311 23.0496 28.9519 22.676 28.4648C22.2619 27.9266 21.7265 27.5007 21.0616 27.3618ZM21.1353 20.1336C21.4547 19.8156 21.9722 19.8156 22.2916 20.1336C22.611 20.4516 22.611 20.9675 22.2916 21.2848C21.9722 21.6029 21.4547 21.6029 21.1353 21.2848C20.8159 20.9675 20.8159 20.4516 21.1353 20.1336ZM28.325 20.1307C28.1068 19.0925 28.7348 18.3348 29.6309 17.9067C30.3499 17.5635 31.207 17.5038 32.1934 17.7132C33.0252 17.8902 34.0911 18.4478 34.7314 19.2148C35.9715 20.6992 35.0139 22.167 33.3562 22.6296C32.6198 22.8354 31.8509 22.8174 31.0473 22.5576C30.5038 22.3814 29.9221 22.1094 29.4329 21.7374C28.8916 21.3258 28.4638 20.792 28.325 20.1307Z" fill="#56586F"/>
</g>
<defs>
<clipPath id="clip0_299_670">
<rect width="37" height="36" fill="white"/>
</clipPath>
</defs>
</svg>
