<svg width="20" height="20" viewBox="0 0 20 20" fill="none" xmlns="http://www.w3.org/2000/svg">
<g clip-path="url(#clip0_304_1249)">
<path d="M10 0C4.486 0 0 4.48594 0 10C0 15.5139 4.486 20 10 20C15.514 20 20 15.5139 20 10C20 4.48594 15.514 0 10 0ZM10 18.1818C5.48855 18.1818 1.81818 14.5115 1.81818 10C1.81818 5.48855 5.48855 1.81818 10 1.81818C14.5115 1.81818 18.1818 5.48855 18.1818 10C18.1818 14.5115 14.5115 18.1818 10 18.1818Z" fill="#00FF47"/>
<path d="M12.8281 7.70417L10.9088 9.62332V4.54532C10.9088 4.0432 10.5018 3.63623 9.99972 3.63623C9.49766 3.63623 9.09063 4.0432 9.09063 4.54532V9.62332L7.17154 7.70417C6.81657 7.3492 6.24093 7.3492 5.8859 7.70417C5.53087 8.05926 5.53087 8.63478 5.8859 8.98981L9.35687 12.4608C9.53439 12.6384 9.76705 12.7271 9.99966 12.7271C10.2323 12.7271 10.465 12.6384 10.6425 12.4609L14.1137 8.98993C14.4687 8.63496 14.4688 8.05932 14.1138 7.70417C13.7587 7.3492 13.1831 7.3492 12.8281 7.70417Z" fill="#00FF47"/>
<path d="M11.8184 14.5454H8.18204C7.67998 14.5454 7.27295 14.9524 7.27295 15.4545C7.27295 15.9565 7.67998 16.3636 8.18204 16.3636H11.8184C12.3205 16.3636 12.7275 15.9565 12.7275 15.4545C12.7275 14.9524 12.3205 14.5454 11.8184 14.5454Z" fill="#00FF47"/>
</g>
<defs>
<clipPath id="clip0_304_1249">
<rect width="20" height="20" fill="white"/>
</clipPath>
</defs>
</svg>
