<svg width="40" height="40" viewBox="0 0 40 40" fill="none" xmlns="http://www.w3.org/2000/svg">
<g clip-path="url(#clip0_49_45)">
<path fill-rule="evenodd" clip-rule="evenodd" d="M20.006 0C31.0471 0 40.012 8.9529 40.012 20.006C40.012 31.0471 31.0591 40.012 20.006 40.012C8.9649 40.012 0 31.0591 0 20.006C0 8.9649 8.9529 0 20.006 0ZM30.8071 13.2973C30.015 13.6574 29.1629 13.8854 28.2628 13.9934C29.1749 13.4413 29.883 12.5773 30.207 11.5452C29.3549 12.0492 28.3948 12.4212 27.3987 12.6253C26.5827 11.7612 25.4425 11.2331 24.1584 11.2331C21.7102 11.2331 19.73 13.2133 19.73 15.6616C19.73 16.0096 19.766 16.3456 19.838 16.6697C16.1536 16.4776 12.8893 14.7255 10.7051 12.0372C10.309 12.7093 10.105 13.4773 10.105 14.2694C10.105 15.8056 10.8851 17.1617 12.0732 17.9538C11.3411 17.9298 10.6691 17.7258 10.069 17.4017V17.4617C10.069 19.61 11.5932 21.3981 13.6214 21.8062C13.2493 21.9022 12.8533 21.9622 12.4572 21.9622C12.1692 21.9622 11.8932 21.9382 11.6172 21.8782C12.1812 23.6424 13.8134 24.9145 15.7576 24.9625C14.2334 26.1506 12.3372 26.8587 10.249 26.8587C9.88899 26.8587 9.54095 26.8347 9.19292 26.7987C11.1611 28.0588 13.4893 28.7909 15.9856 28.7909C24.1344 28.7909 28.5989 22.0342 28.5989 16.1776C28.5989 15.9856 28.5989 15.7936 28.5869 15.6016C29.4509 14.9775 30.207 14.1974 30.7951 13.3093L30.8071 13.2973Z" fill="white"/>
</g>
<defs>
<clipPath id="clip0_49_45">
<rect width="40" height="40" fill="white"/>
</clipPath>
</defs>
</svg>
