<svg width="28" height="28" viewBox="0 0 28 28" fill="none" xmlns="http://www.w3.org/2000/svg">
<path d="M23.1121 1.35297H20.076V0H18.8586V1.35297H14.6085V0H13.3911V1.35297H9.14121V0H7.92384V1.35297H4.88749C4.55132 1.35297 4.27881 1.62549 4.27881 1.96166V27.3913C4.27881 27.7275 4.55132 28 4.88749 28H23.1121C23.4482 28 23.7208 27.7275 23.7208 27.3913V1.96166C23.7208 1.62549 23.4482 1.35297 23.1121 1.35297ZM7.92384 2.57034V3.92354H9.14121V2.57034H13.3911V3.92354H14.6085V2.57034H18.8586V3.92354H20.076V2.57034H22.5034V6.85114H5.49618V2.57034H7.92384ZM5.49618 26.7826V8.06851H22.5034V26.7826H5.49618Z" fill="#FF8A00"/>
</svg>
