<svg width="20" height="20" viewBox="0 0 20 20" fill="none" xmlns="http://www.w3.org/2000/svg">
<path d="M17.3335 9.33331H16.0001C15.2668 9.33331 14.6668 9.9333 14.6668 10.6667C14.6668 11.4 15.2668 12 16.0001 12H16.3012C16.1691 12.6738 15.642 13.1902 14.9624 13.3076C14.802 12.552 14.1432 12 13.3335 12H10.3335V11.6667H14.3335V8.33336C14.3335 6.8667 13.1335 5.66668 11.6668 5.66668H10.3335V5.00001H12.6668V3.33331C12.6668 1.97956 11.6442 0.85384 10.3335 0.688394V0.333315C10.3335 0.133318 10.2001 0 10.0001 0C9.80014 0 9.66682 0.133318 9.66682 0.333315V0.688394C8.35607 0.85384 7.33349 1.97956 7.33349 3.33331V4.99997H9.66682V5.66664H8.33348C6.86682 5.66664 5.6668 6.86662 5.6668 8.33332V11.6666H9.66682V12H6.66682C5.85714 12 5.1983 12.552 5.03789 13.3076C4.35835 13.1902 3.83124 12.6737 3.69907 12H4.00018C4.73353 12 5.33352 11.4 5.33352 10.6666C5.33352 9.93326 4.73353 9.33327 4.00018 9.33327H2.66684C1.93349 9.33327 1.3335 9.93326 1.3335 10.6666C1.3335 11.4 1.93349 12 2.66684 12H3.0237C3.16901 13.0396 3.98509 13.8471 5.02892 13.98C5.17204 14.7589 5.84094 15.3333 6.66682 15.3333H9.00015V16H8.66683V17.937C8.16235 18.2306 7.79631 18.7382 7.69536 19.3333H5.66683C5.46684 19.3333 5.33352 19.4666 5.33352 19.6666C5.33352 19.8666 5.46684 20 5.66683 20H7.66685H12.3335H14.3335C14.5335 20 14.6668 19.8666 14.6668 19.6666C14.6668 19.4666 14.5335 19.3333 14.3335 19.3333H12.305C12.204 18.7382 11.838 18.2307 11.3335 17.937V16H11.0002V15.3333H13.3335C14.1594 15.3333 14.8283 14.7589 14.9714 13.98C16.0153 13.8471 16.8313 13.0396 16.9766 12H17.3335C18.0669 12 18.6669 11.4 18.6669 10.6666C18.6668 9.93334 18.0668 9.33331 17.3335 9.33331ZM8.00016 3.33331C8.00016 2.23333 8.90015 1.3333 10.0002 1.3333C11.1002 1.3333 12.0002 2.23329 12.0002 3.33331V4.3333H8.00016V3.33331ZM6.33347 8.33332C6.33347 7.23334 7.23345 6.33331 8.33348 6.33331H11.6668C12.7668 6.33331 13.6668 7.2333 13.6668 8.33332V11H6.33347V8.33332ZM2.00017 10.6667C2.00017 10.3 2.30016 9.99998 2.66684 9.99998H4.00018C4.36685 9.99998 4.66685 10.3 4.66685 10.6667C4.66685 11.0333 4.36685 11.3333 4.00018 11.3333H2.66684C2.30016 11.3333 2.00017 11.0333 2.00017 10.6667ZM8.3668 19.3333C8.53348 18.7667 9.03347 18.3333 9.63346 18.3333H10.3001C10.9335 18.3333 11.4668 18.7667 11.6001 19.3333H8.3668ZM9.66682 17.6666H9.3335V16.6666H10.6668V17.6666H10.3335H9.66682ZM10.3335 16H9.66682V15.3333H10.3335V16ZM13.3335 14.6666H11.0002H9.00015H6.66682C6.10015 14.6666 5.66683 14.2333 5.66683 13.6666C5.66683 13.1 6.10015 12.6667 6.66682 12.6667H13.3335C13.9002 12.6667 14.3335 13.1 14.3335 13.6666C14.3335 14.2333 13.9002 14.6666 13.3335 14.6666ZM17.3335 11.3333H16.0001C15.6335 11.3333 15.3335 11.0333 15.3335 10.6667C15.3335 10.3 15.6335 9.99998 16.0001 9.99998H17.3335C17.7001 9.99998 18.0001 10.3 18.0001 10.6667C18.0001 11.0333 17.7001 11.3333 17.3335 11.3333Z" fill="black"/>
</svg>
