<svg width="16" height="16" viewBox="0 0 16 16" fill="none" xmlns="http://www.w3.org/2000/svg">
<g clip-path="url(#clip0_123_350)">
<path d="M15.2856 1.03839L14.9615 0.714243C14.009 -0.238197 12.4592 -0.238291 11.5067 0.714243L11.0115 1.2094L1.89983 10.3211C1.89679 10.3241 1.89417 10.3274 1.89129 10.3306C1.86054 10.3624 1.83601 10.4006 1.82088 10.4437L0.0176348 15.5839C-0.0221492 15.6972 0.00660277 15.8234 0.0915461 15.9083C0.151175 15.9679 0.231056 15.9999 0.312592 15.9999C0.34722 15.9999 0.382191 15.9941 0.416006 15.9823L1.45011 15.6194C1.61296 15.5623 1.69869 15.3839 1.64153 15.221C1.5844 15.0582 1.40607 14.9725 1.24316 15.0296L0.822659 15.1771L2.24613 11.1195L4.88031 13.7537L2.57012 14.5641C2.40727 14.6213 2.32154 14.7996 2.3787 14.9625C2.43586 15.1254 2.61419 15.2112 2.77707 15.1539L5.55617 14.179C5.59917 14.1639 5.63721 14.1395 5.66902 14.1088C5.67224 14.1058 5.67565 14.1031 5.67874 14.1L14.7902 4.98847C14.7903 4.98841 14.7903 4.98838 14.7904 4.98832L15.2856 4.49316C16.2381 3.54069 16.2381 1.99086 15.2856 1.03839ZM5.45779 13.4371L2.56281 10.5421L11.2325 1.87239L14.1275 4.76736L5.45779 13.4371ZM14.8436 4.05119L14.5694 4.32537L13.122 2.87789L11.6745 1.43042L11.9487 1.15621C12.6574 0.447412 13.8107 0.447412 14.5195 1.15621L14.8436 1.48036C15.5524 2.18913 15.5524 3.34242 14.8436 4.05119Z" fill="#56586F"/>
<path d="M9.42361 4.99911L4.16575 10.257C4.04371 10.379 4.04371 10.5769 4.16575 10.699C4.22678 10.76 4.30676 10.7905 4.38673 10.7905C4.46671 10.7905 4.54671 10.76 4.60772 10.699L9.86558 5.44111C9.98765 5.31907 9.98765 5.12118 9.86561 4.99911C9.74354 4.87707 9.54571 4.8771 9.42361 4.99911Z" fill="#56586F"/>
<path d="M10.9773 3.44566L10.4695 3.9535C10.3474 4.07554 10.3474 4.27343 10.4695 4.39547C10.5305 4.45651 10.6105 4.48701 10.6905 4.48701C10.7704 4.48701 10.8504 4.45648 10.9115 4.39547L11.4193 3.88762C11.5414 3.76558 11.5414 3.5677 11.4193 3.44566C11.2973 3.32362 11.0995 3.32362 10.9773 3.44566Z" fill="#56586F"/>
</g>
<defs>
<clipPath id="clip0_123_350">
<rect width="16" height="16" fill="white"/>
</clipPath>
</defs>
</svg>
