<svg width="28" height="28" viewBox="0 0 28 28" fill="none" xmlns="http://www.w3.org/2000/svg">
<g clip-path="url(#clip0_273_38)">
<path fill-rule="evenodd" clip-rule="evenodd" d="M14 0C16.7689 0 19.4757 0.821086 21.778 2.35943C24.0803 3.89777 25.8747 6.08427 26.9343 8.64243C27.9939 11.2006 28.2712 14.0155 27.731 16.7313C27.1908 19.447 25.8574 21.9416 23.8995 23.8995C21.9416 25.8574 19.447 27.1908 16.7313 27.731C14.0155 28.2712 11.2006 27.9939 8.64243 26.9343C6.08427 25.8747 3.89777 24.0803 2.35943 21.778C0.821086 19.4757 0 16.7689 0 14C0 10.287 1.475 6.72601 4.10051 4.10051C6.72601 1.475 10.287 0 14 0V0ZM7.7998 11.4525C7.7998 11.5509 7.78041 11.6484 7.74274 11.7394C7.70507 11.8303 7.64984 11.913 7.58023 11.9826C7.51062 12.0522 7.42797 12.1074 7.33702 12.1451C7.24606 12.1828 7.14858 12.2021 7.05013 12.2021C6.95168 12.2021 6.8542 12.1828 6.76324 12.1451C6.67229 12.1074 6.58964 12.0522 6.52003 11.9826C6.45042 11.913 6.3952 11.8303 6.35752 11.7394C6.31985 11.6484 6.30046 11.5509 6.30046 11.4525V8.04818C6.29955 7.94915 6.31828 7.85094 6.35555 7.75919C6.39282 7.66744 6.4479 7.58399 6.5176 7.51365C6.5873 7.44331 6.67025 7.38748 6.76165 7.34938C6.85306 7.31128 6.9511 7.29166 7.05013 7.29167H10.5182C10.7171 7.29167 10.9077 7.37065 11.0483 7.51124C11.1889 7.65183 11.2679 7.84252 11.2679 8.04134C11.2679 8.24017 11.1889 8.43085 11.0483 8.57144C10.9077 8.71203 10.7171 8.79102 10.5182 8.79102H8.86165L11.849 11.7692C11.9185 11.8385 11.9738 11.9208 12.0115 12.0114C12.0493 12.102 12.0689 12.1992 12.0691 12.2974C12.0693 12.3956 12.0502 12.4928 12.0128 12.5836C11.9754 12.6744 11.9205 12.7569 11.8512 12.8265C11.782 12.8961 11.6997 12.9513 11.609 12.9891C11.5184 13.0269 11.4212 13.0464 11.3231 13.0466C11.2249 13.0468 11.1276 13.0277 11.0368 12.9903C10.9461 12.9529 10.8635 12.898 10.7939 12.8288L7.7998 9.85287V11.4479V11.4525ZM10.8418 19.5964C11.0338 19.6069 11.2144 19.6906 11.3466 19.8303C11.4787 19.9699 11.5524 20.1549 11.5524 20.3472C11.5524 20.5394 11.4787 20.7244 11.3466 20.864C11.2144 21.0037 11.0338 21.0874 10.8418 21.098H7.4375C7.23867 21.098 7.04799 21.019 6.9074 20.8784C6.76681 20.7378 6.68783 20.5471 6.68783 20.3483V16.862C6.68783 16.6632 6.76681 16.4725 6.9074 16.3319C7.04799 16.1913 7.23867 16.1123 7.4375 16.1123C7.63633 16.1123 7.82701 16.1913 7.9676 16.3319C8.10819 16.4725 8.18717 16.6632 8.18717 16.862V18.5254L11.1654 15.5472C11.2346 15.4776 11.3169 15.4224 11.4076 15.3846C11.4982 15.3468 11.5954 15.3273 11.6935 15.3271C11.7917 15.3269 11.889 15.346 11.9798 15.3834C12.0705 15.4208 12.1531 15.4756 12.2227 15.5449C12.2922 15.6142 12.3475 15.6965 12.3852 15.7871C12.423 15.8777 12.4426 15.9749 12.4428 16.0731C12.443 16.1713 12.4239 16.2685 12.3865 16.3593C12.3491 16.4501 12.2942 16.5326 12.2249 16.6022L9.24219 19.5964H10.8418ZM20.2002 16.5475C20.2002 16.3487 20.2792 16.158 20.4198 16.0174C20.5604 15.8768 20.751 15.7979 20.9499 15.7979C21.1487 15.7979 21.3394 15.8768 21.48 16.0174C21.6206 16.158 21.6995 16.3487 21.6995 16.5475V19.9518C21.6995 20.1506 21.6206 20.3413 21.48 20.4819C21.3394 20.6225 21.1487 20.7015 20.9499 20.7015H17.4818C17.2829 20.7015 17.0923 20.6225 16.9517 20.4819C16.8111 20.3413 16.7321 20.1506 16.7321 19.9518C16.7321 19.753 16.8111 19.5623 16.9517 19.4217C17.0923 19.2811 17.2829 19.2021 17.4818 19.2021H19.1406L16.1602 16.2399C16.0196 16.1 15.9405 15.91 15.94 15.7117C15.9396 15.5135 16.018 15.3231 16.1579 15.1826C16.2978 15.0421 16.4878 14.9629 16.6861 14.9625C16.8843 14.9621 17.0747 15.0404 17.2152 15.1803L20.2002 18.1471V16.5521V16.5475ZM17.1582 8.41276C16.9662 8.40218 16.7856 8.31847 16.6534 8.17882C16.5213 8.03918 16.4476 7.85421 16.4476 7.66195C16.4476 7.46968 16.5213 7.28472 16.6534 7.14507C16.7856 7.00543 16.9662 6.92171 17.1582 6.91113H20.5625C20.7613 6.91113 20.952 6.99012 21.0926 7.13071C21.2332 7.2713 21.3122 7.46198 21.3122 7.66081V11.1289C21.3122 11.3277 21.2332 11.5184 21.0926 11.659C20.952 11.7996 20.7613 11.8786 20.5625 11.8786C20.3637 11.8786 20.173 11.7996 20.0324 11.659C19.8918 11.5184 19.8128 11.3277 19.8128 11.1289V9.47461L16.8506 12.4528C16.781 12.523 16.6983 12.5788 16.6072 12.617C16.516 12.6552 16.4183 12.675 16.3195 12.6755C16.2207 12.6759 16.1227 12.6568 16.0313 12.6194C15.9398 12.582 15.8566 12.5269 15.7865 12.4574C15.7163 12.3878 15.6605 12.3051 15.6223 12.2139C15.5841 12.1228 15.5642 12.0251 15.5638 11.9262C15.5634 11.8274 15.5824 11.7295 15.6198 11.638C15.6573 11.5466 15.7123 11.4634 15.7819 11.3932L18.7578 8.4082L17.1582 8.41276Z" fill="#FF8A00"/>
</g>
<defs>
<clipPath id="clip0_273_38">
<rect width="28" height="28" fill="white"/>
</clipPath>
</defs>
</svg>
