<svg width="28" height="28" viewBox="0 0 28 28" fill="none" xmlns="http://www.w3.org/2000/svg">
<g clip-path="url(#clip0_273_40)">
<path fill-rule="evenodd" clip-rule="evenodd" d="M14 0C21.7314 0 28 6.26855 28 14C28 21.7314 21.7314 28 14 28C6.26855 28 0 21.7314 0 14C0 6.26855 6.26855 0 14 0ZM8.99609 12.9404C10.0443 13.5443 10.7256 14.0456 11.5391 14.9411C13.6445 11.5505 15.9323 9.67285 18.9036 7.00456L19.1953 6.8929H22.4492C18.0879 11.7373 14.7041 15.7318 11.6758 21.5742C10.099 18.2041 8.69303 15.8776 5.55078 13.7197L8.99609 12.9404Z" fill="#3AAF3C"/>
</g>
<defs>
<clipPath id="clip0_273_40">
<rect width="28" height="28" fill="white"/>
</clipPath>
</defs>
</svg>
