<svg width="28" height="28" viewBox="0 0 28 28" fill="none" xmlns="http://www.w3.org/2000/svg">
<path fill-rule="evenodd" clip-rule="evenodd" d="M13.8187 25.2721C9.51168 25.2721 5.8335 24.6019 5.8335 21.9176C5.8335 19.2334 9.48835 16.7554 13.8187 16.7554C18.126 16.7554 21.8041 19.2094 21.8041 21.8937C21.8041 24.5768 18.1493 25.2721 13.8187 25.2721Z" stroke="#1A1B29" stroke-width="2" stroke-linecap="round" stroke-linejoin="round"/>
<path fill-rule="evenodd" clip-rule="evenodd" d="M13.8103 13.0358C16.6369 13.0358 18.9278 10.7449 18.9278 7.91838C18.9278 5.09186 16.6369 2.79988 13.8103 2.79988C10.9839 2.79988 8.69192 5.09186 8.69192 7.91838C8.68238 10.7353 10.9574 13.0263 13.7743 13.0358C13.787 13.0358 13.7987 13.0358 13.8103 13.0358Z" stroke="#1A1B29" stroke-width="2" stroke-linecap="round" stroke-linejoin="round"/>
</svg>
