<svg width="40" height="40" viewBox="0 0 40 40" fill="none" xmlns="http://www.w3.org/2000/svg">
<path fill-rule="evenodd" clip-rule="evenodd" d="M19.741 36.103C13.588 36.103 8.3335 35.1455 8.3335 31.3108C8.3335 27.4763 13.5547 23.9363 19.741 23.9363C25.8942 23.9363 31.1487 27.442 31.1487 31.2767C31.1487 35.1097 25.9275 36.103 19.741 36.103Z" stroke="#1A1B29" stroke-width="2" stroke-linecap="round" stroke-linejoin="round"/>
<path fill-rule="evenodd" clip-rule="evenodd" d="M19.7291 18.6225C23.7671 18.6225 27.0397 15.3498 27.0397 11.312C27.0397 7.27408 23.7671 3.99983 19.7291 3.99983C15.6913 3.99983 12.417 7.27408 12.417 11.312C12.4034 15.3362 15.6534 18.609 19.6776 18.6225C19.6957 18.6225 19.7124 18.6225 19.7291 18.6225Z" stroke="#1A1B29" stroke-width="2" stroke-linecap="round" stroke-linejoin="round"/>
</svg>
