<svg width="122" height="122" viewBox="0 0 122 122" fill="none" xmlns="http://www.w3.org/2000/svg">
<g clip-path="url(#clip0_441_543)">
<path d="M32.5845 50.9765L47.4671 50.7779L48.5791 51.0659C51.5874 52.7935 54.417 54.7794 57.0579 57.0134C58.9642 58.6319 60.791 60.3894 62.5186 62.2958C67.86 53.707 73.549 45.8133 79.5557 38.565C86.1382 30.6216 93.1178 23.4031 100.455 16.8201L101.904 16.264H118.147L114.871 19.8981C104.813 31.0784 95.6794 42.636 87.4289 54.551C79.1685 66.4958 71.7917 78.808 65.229 91.4777L63.1838 95.4196L61.3073 91.4082C57.8423 83.9811 53.7021 77.1598 48.7578 71.0632C43.8135 64.9667 38.0649 59.5553 31.3633 54.9581L32.5845 50.9765Z" fill="white"/>
<path d="M61 0C70.4618 0 79.4172 2.15464 87.4194 5.99723C84.1431 8.58875 81.105 11.0711 78.2754 13.4739C72.8843 11.5179 67.0762 10.4455 61.0099 10.4455C47.0506 10.4455 34.4118 16.1052 25.2677 25.2599C16.1237 34.4146 10.4546 47.0445 10.4546 61.005C10.4546 74.9654 16.1138 87.5953 25.2677 96.7501C34.4217 105.905 47.0506 111.564 61.0099 111.564C74.9692 111.564 87.6081 105.905 96.7521 96.7501C105.906 87.5953 111.555 74.9654 111.555 61.005C111.555 57.6886 111.238 54.4318 110.622 51.2942C113.243 47.8786 115.934 44.4629 118.674 41.087C120.828 47.3225 122 54.0347 122 61.005C122 77.8449 115.169 93.106 104.139 104.137C93.0985 115.179 77.8485 122.01 61.0099 122.01C44.1714 122.01 28.9214 115.179 17.881 104.137C6.83073 93.0961 0 77.8449 0 61.005C0 44.1551 6.83073 28.9039 17.8612 17.8725C28.9015 6.83129 44.1515 0 61 0Z" fill="white"/>
</g>
<defs>
<clipPath id="clip0_441_543">
<rect width="122" height="122" fill="white"/>
</clipPath>
</defs>
</svg>
