<svg width="33" height="33" viewBox="0 0 33 33" fill="none" xmlns="http://www.w3.org/2000/svg">
<path d="M5.91797 9.99856V33H15.1402V10H5.91797V9.99856Z" fill="black"/>
<path d="M15.1402 8.22222V6.90289C15.1402 5.25889 13.918 3.89267 12.3624 3.61011V0H8.69575V3.61911C7.14019 3.92167 5.91797 5.27656 5.91797 6.90289V8.22367V8.22222H15.1402Z" fill="black"/>
<path d="M16.9709 1.77778C17.4618 1.77778 17.8598 1.37981 17.8598 0.888889C17.8598 0.397969 17.4618 0 16.9709 0C16.48 0 16.082 0.397969 16.082 0.888889C16.082 1.37981 16.48 1.77778 16.9709 1.77778Z" fill="black"/>
<path d="M21.5822 1.77778C22.0732 1.77778 22.4711 1.37981 22.4711 0.888889C22.4711 0.397969 22.0732 0 21.5822 0C21.0913 0 20.6934 0.397969 20.6934 0.888889C20.6934 1.37981 21.0913 1.77778 21.5822 1.77778Z" fill="black"/>
<path d="M19.7483 5.44444C20.2392 5.44444 20.6372 5.04647 20.6372 4.55555C20.6372 4.06463 20.2392 3.66666 19.7483 3.66666C19.2573 3.66666 18.8594 4.06463 18.8594 4.55555C18.8594 5.04647 19.2573 5.44444 19.7483 5.44444Z" fill="black"/>
<path d="M23.4153 9.11111C23.9062 9.11111 24.3041 8.71314 24.3041 8.22222C24.3041 7.7313 23.9062 7.33334 23.4153 7.33334C22.9243 7.33334 22.5264 7.7313 22.5264 8.22222C22.5264 8.71314 22.9243 9.11111 23.4153 9.11111Z" fill="black"/>
<path d="M26.1926 1.77778C26.6835 1.77778 27.0815 1.37981 27.0815 0.888889C27.0815 0.397969 26.6835 0 26.1926 0C25.7017 0 25.3037 0.397969 25.3037 0.888889C25.3037 1.37981 25.7017 1.77778 26.1926 1.77778Z" fill="black"/>
</svg>
