<svg width="32" height="32" viewBox="0 0 32 32" fill="none" xmlns="http://www.w3.org/2000/svg">
<g clip-path="url(#clip0_416_601)">
<path d="M29.259 23.25C29.162 22.9768 28.8618 22.8339 28.5887 22.931C28.3155 23.0279 28.1726 23.328 28.2696 23.6013C28.5716 24.4521 28.2658 25.4092 27.5259 25.9289C26.6144 26.569 25.352 26.3485 24.7118 25.437C24.4016 24.9954 24.282 24.4595 24.3749 23.9279C24.4678 23.3963 24.7622 22.9328 25.2037 22.6227C25.8713 22.1538 26.7492 22.1311 27.4402 22.5649C27.6858 22.7191 28.0097 22.645 28.1639 22.3995C28.318 22.154 28.2439 21.83 27.9984 21.6758C26.9485 21.0166 25.6147 21.051 24.6003 21.7635C23.2151 22.7365 22.8797 24.655 23.8527 26.0402C24.4495 26.89 25.402 27.3447 26.3692 27.3446C26.9786 27.3446 27.5939 27.164 28.1294 26.7878C29.2536 25.9983 29.7181 24.5435 29.259 23.25Z" fill="black"/>
<path d="M30.2956 21.288C29.5665 20.327 28.5071 19.6687 27.3127 19.4347C26.1178 19.2005 24.8885 19.4106 23.851 20.0258C23.5226 20.2207 23.2207 20.4498 22.9484 20.7107L18.788 14.7874L20.6702 4.02186C21.7179 5.81404 22.1091 7.93485 21.7472 10.0046L20.6772 16.1253C20.6273 16.4108 20.8183 16.6828 21.1039 16.7327C21.1345 16.7381 21.165 16.7407 21.1949 16.7407C21.4452 16.7407 21.6668 16.561 21.7114 16.3061L22.7814 10.1854C23.2672 7.40672 22.5399 4.54592 20.786 2.33656C20.6575 2.17468 20.4461 2.10318 20.2456 2.15424C20.0452 2.20518 19.8934 2.36893 19.8578 2.57256L17.9347 13.5724L15.0009 9.39565C14.8343 9.1584 14.5069 9.10115 14.2697 9.26778C14.0325 9.43434 13.9752 9.76184 14.1418 9.99903L20.7564 19.4164L19.4685 21.2214L13.1757 12.2622C11.9686 10.5437 11.4208 8.45922 11.6068 6.38985L13.1165 8.53928C13.2831 8.77653 13.6106 8.83372 13.8478 8.66716C14.085 8.50059 14.1423 8.17316 13.9756 7.93591L11.7253 4.73211C11.6066 4.56292 11.3994 4.47967 11.1964 4.51874C10.9935 4.55786 10.8322 4.7128 10.7847 4.91405C10.1371 7.65929 10.6955 10.5575 12.3167 12.8656L16.9139 19.4109L16.4951 21.8067C16.2588 21.7272 16.0164 21.6655 15.7695 21.6225C14.4706 21.3954 13.1608 21.6879 12.0815 22.446C11.0022 23.2041 10.2827 24.3369 10.0555 25.6359C9.82834 26.9351 10.1208 28.245 10.879 29.3243C11.637 30.4034 12.7699 31.1228 14.069 31.3499C14.3564 31.4001 14.6443 31.425 14.9301 31.425C15.9364 31.425 16.9169 31.1171 17.7574 30.5268C18.8365 29.7688 19.5559 28.6358 19.7831 27.3365L20.3207 24.2612L22.2833 27.0553C23.0595 28.1604 24.2192 28.8959 25.5488 29.1265C25.8356 29.1761 26.1224 29.2008 26.4068 29.2008C27.4105 29.2008 28.3841 28.8948 29.2143 28.3084C30.3171 27.5291 31.0383 26.3646 31.2445 25.0295C31.4506 23.6948 31.1137 22.366 30.2956 21.288ZM18.7487 27.1556C18.5699 28.1787 18.0035 29.0708 17.1538 29.6676C16.3041 30.2643 15.2729 30.4946 14.2497 30.3156C13.2269 30.1368 12.3349 29.5703 11.738 28.7206C11.1411 27.8709 10.9108 26.8395 11.0897 25.8165C11.2685 24.7938 11.835 23.9018 12.6849 23.3049C13.5348 22.708 14.5661 22.4778 15.5888 22.6565C15.9634 22.722 16.3252 22.8415 16.6638 23.0116C16.8122 23.0862 16.9869 23.0861 17.1353 23.0115C17.2836 22.9369 17.3879 22.7965 17.4166 22.633L17.7675 20.6259L19.4674 23.0461L18.7487 27.1556ZM30.2068 24.8689C30.0444 25.9202 29.4766 26.8371 28.6083 27.4506C27.7725 28.0412 26.7495 28.2689 25.728 28.0918C24.6753 27.9093 23.7569 27.3268 23.1422 26.4516L20.4523 22.6219C20.4517 22.6209 20.4511 22.62 20.4504 22.6191L20.1084 22.1322L21.3963 20.3272L22.4661 21.8502C22.5615 21.9861 22.7155 22.0688 22.8814 22.0733C23.048 22.0784 23.2055 22.0035 23.3082 21.8731C23.6064 21.4941 23.9693 21.1764 24.3868 20.9288C25.2022 20.4452 26.1698 20.2804 27.111 20.4649C28.0523 20.6494 28.8864 21.167 29.4596 21.9225C30.1038 22.7719 30.3692 23.8182 30.2068 24.8689Z" fill="black"/>
<path d="M15.4476 23.4622C14.6397 23.3209 13.8254 23.5027 13.1544 23.974C12.4834 24.4453 12.036 25.1498 11.8948 25.9575C11.6033 27.625 12.7228 29.2188 14.3902 29.5103C14.5688 29.5415 14.7477 29.557 14.9253 29.557C15.551 29.557 16.1607 29.3655 16.6833 28.9985C17.3544 28.5272 17.8017 27.8228 17.943 27.015C18.2345 25.3474 17.115 23.7537 15.4476 23.4622ZM16.9088 26.8341C16.717 27.9314 15.6686 28.6684 14.5709 28.4761C13.4737 28.2843 12.737 27.2356 12.9289 26.1383C13.1207 25.041 14.1693 24.3044 15.2668 24.4963C16.364 24.6882 17.1007 25.7369 16.9088 26.8341Z" fill="black"/>
<path d="M19.319 18.2762C19.1213 18.1714 18.8723 18.204 18.7099 18.3588C18.5266 18.5335 18.4968 18.8197 18.6356 19.0304C18.8913 19.4187 19.5089 19.2829 19.5883 18.8287C19.6268 18.6085 19.5169 18.3811 19.319 18.2762Z" fill="black"/>
<path d="M10.5335 19.8596L10.5298 19.8386C10.4025 19.1311 9.78841 18.6174 9.06953 18.6174H6.40098C5.91636 18.6174 5.47111 18.4339 5.19711 18.1513H8.62622C8.9161 18.1513 9.15116 17.9163 9.15116 17.6264C9.15116 17.3364 8.91616 17.1014 8.62622 17.1014H4.8078C4.74493 16.8017 4.68655 16.5016 4.63274 16.2014H8.32872C8.6186 16.2014 8.85366 15.9664 8.85366 15.6764C8.85366 15.3865 8.61866 15.1515 8.32872 15.1515H4.4623C4.41912 14.8519 4.38012 14.5521 4.34587 14.2521H8.20972C8.4996 14.2521 8.73466 14.0171 8.73466 13.7272C8.73466 13.4373 8.49966 13.2023 8.20972 13.2023H4.24499C4.22118 12.9024 4.20187 12.6023 4.18699 12.3022H8.20972C8.4996 12.3022 8.73466 12.0672 8.73466 11.7773C8.73466 11.4873 8.49966 11.2523 8.20972 11.2523H4.15249C4.14799 10.9523 4.14799 10.6523 4.15249 10.3523H8.24897C8.53885 10.3523 8.77391 10.1173 8.77391 9.82734C8.77391 9.5374 8.53891 9.3024 8.24897 9.3024H4.18699C4.2018 9.00259 4.22112 8.70272 4.24493 8.40303H8.32872C8.6186 8.40303 8.85366 8.16803 8.85366 7.87809C8.85366 7.58816 8.61866 7.35316 8.32872 7.35316H4.3458C4.38012 7.05297 4.41905 6.75304 4.46236 6.4531H8.45266C8.74253 6.4531 8.9776 6.2181 8.9776 5.92816C8.9776 5.63823 8.7426 5.40323 8.45266 5.40323H4.63274C4.68661 5.10298 4.74493 4.80292 4.80786 4.50317H8.62622C8.9161 4.50317 9.15116 4.26817 9.15116 3.97823C9.15116 3.68836 8.91616 3.4533 8.62622 3.4533H5.19699C5.47099 3.17067 5.91636 2.98711 6.40092 2.98711H9.06947C9.78897 2.98711 10.4031 2.4733 10.5298 1.76524L10.5333 1.74606C10.6114 1.31256 10.4941 0.869934 10.2115 0.531873C9.92878 0.193937 9.51384 0 9.07297 0H4.07193C2.86175 0 1.79413 0.819184 1.47569 1.99205C0.879129 4.19005 0.317444 9.30403 1.03 21.1847C1.04738 21.474 1.29631 21.6952 1.58538 21.6772C1.87475 21.6598 2.09531 21.4112 2.07794 21.1217C1.52075 11.8303 1.66281 5.31048 2.48894 2.26705C2.68343 1.55043 3.33449 1.04987 4.07193 1.04987H9.07297C9.24947 1.04987 9.35741 1.14743 9.40603 1.20562C9.45453 1.26368 9.53128 1.38693 9.49884 1.56718L9.49641 1.58087C9.45941 1.78768 9.27985 1.93774 9.06947 1.93774H6.40092C5.19136 1.93774 4.14543 2.66893 3.91399 3.67636C2.82725 8.40503 2.82725 13.2002 3.91399 17.9288C4.14543 18.9362 5.19136 19.6674 6.40092 19.6674H9.06947C9.27966 19.6674 9.45922 19.8176 9.49641 20.0242L9.50016 20.0453C9.53134 20.2187 9.45466 20.3419 9.4061 20.3999C9.3576 20.4579 9.24991 20.5552 9.07372 20.5552H7.31748C6.30636 20.5552 5.4568 21.3452 5.38342 22.3537L4.82818 29.9884C4.78899 30.5277 4.33462 30.9502 3.79387 30.9502C3.25543 30.9502 2.81156 30.546 2.76137 30.01C2.61412 28.4379 2.39706 25.9502 2.19944 23.0268C2.17994 22.7376 1.92875 22.5187 1.64031 22.5385C1.35106 22.558 1.1325 22.8084 1.152 23.0977C1.35044 26.0323 1.56831 28.5296 1.71613 30.1079C1.81713 31.1866 2.71037 32.0001 3.79387 32.0001C4.88205 32.0001 5.79623 31.1499 5.8753 30.0646L6.43054 22.43C6.46417 21.9675 6.85379 21.6052 7.31754 21.6052H9.07378C9.51422 21.605 9.92897 21.4112 10.2115 21.0732C10.494 20.7353 10.6114 20.2929 10.5335 19.8596Z" fill="black"/>
</g>
<defs>
<clipPath id="clip0_416_601">
<rect width="32" height="32" fill="white"/>
</clipPath>
</defs>
</svg>
