<svg width="32" height="32" viewBox="0 0 32 32" fill="none" xmlns="http://www.w3.org/2000/svg">
<path d="M31.9877 8.30669C31.9822 7.63802 31.9752 6.95678 31.9752 6.26863C31.9752 5.88493 31.6638 5.5735 31.2801 5.5735C30.8964 5.5735 30.585 5.88493 30.585 6.26863C30.585 16.8411 24.799 18.1979 19.7581 18.1979C19.4064 18.1979 19.0616 18.1924 18.7279 18.1813C18.4999 16.5492 17.3586 15.3049 15.9878 15.3049C14.6324 15.3049 13.5008 16.5241 13.2602 18.1813C12.9154 18.1924 12.5609 18.1993 12.2009 18.1993C7.0891 18.1993 1.80637 16.7785 1.38931 6.2408C1.374 5.85574 1.04035 5.56653 0.667796 5.5735C0.284165 5.58882 -0.0147509 5.91132 0.00056311 6.29502C0.00056311 6.29365 0.00056311 6.29639 0.00056311 6.29919C0.0450714 7.4364 0.0561495 8.54995 0.0659244 9.62597C0.110433 14.3541 0.149337 18.4371 3.04511 20.717C6.55396 23.4766 11.7964 26.4266 15.9879 26.4266C20.1794 26.4266 25.4204 23.4766 28.9307 20.717C32.0809 18.2369 32.0378 13.6353 31.9877 8.30669Z" fill="black"/>
<path d="M7.41029 15.4829C8.12901 15.4829 8.93811 14.9907 9.96134 14.3665C11.3251 13.5338 13.0226 12.4995 14.7854 12.4995C14.93 12.4995 15.0773 12.5064 15.2942 12.5258C15.5291 12.5258 15.7599 12.4813 15.9907 12.3896C16.227 12.48 16.4077 12.5342 16.7553 12.5217C18.6779 12.3201 20.5408 13.4656 22.0172 14.3665C23.0404 14.9907 23.8495 15.4828 24.5683 15.4828C24.9408 15.4828 25.2675 15.3507 25.5178 15.1019C25.7833 14.8364 25.8834 14.4638 25.7889 14.0801C25.3426 12.2409 19.3091 9.11292 17.5825 8.56937C17.4963 8.52766 17.4087 8.49984 17.2641 8.45957C17.0598 8.40118 16.8791 8.36781 16.6858 8.35393C16.4509 8.35393 16.2201 8.39844 15.9893 8.49019C15.7558 8.39981 15.5194 8.36091 15.2428 8.35673C15.101 8.36788 14.9244 8.40261 14.6644 8.47351C14.5727 8.49853 14.4837 8.52773 14.4921 8.53053C12.6695 9.11161 6.63743 12.2396 6.18974 14.0788C6.09798 14.4625 6.19671 14.8351 6.4622 15.1006C6.71106 15.3509 7.03774 15.4829 7.41029 15.4829Z" fill="black"/>
</svg>
