<svg width="27" height="27" viewBox="0 0 27 27" fill="none" xmlns="http://www.w3.org/2000/svg">
<g clip-path="url(#clip0_416_818)">
<path fill-rule="evenodd" clip-rule="evenodd" d="M13.5 0C20.9509 0 27 6.04912 27 13.5C27 20.9509 20.9509 27 13.5 27C6.04912 27 0 20.9509 0 13.5C0 6.04912 6.04912 0 13.5 0ZM13.5 1.125C20.3299 1.125 25.875 6.67012 25.875 13.5C25.875 20.3299 20.3299 25.875 13.5 25.875C6.67012 25.875 1.125 20.3299 1.125 13.5C1.125 6.67012 6.67012 1.125 13.5 1.125ZM13.5 13.5H20.25V14.625H12.375V4.5H13.5V13.5Z" fill="#56586F"/>
</g>
<defs>
<clipPath id="clip0_416_818">
<rect width="27" height="27" fill="white"/>
</clipPath>
</defs>
</svg>
