<svg width="32" height="32" viewBox="0 0 32 32" fill="none" xmlns="http://www.w3.org/2000/svg">
<g clip-path="url(#clip0_416_751)">
<path d="M15.7474 21.7744C16.5421 21.7744 17.1863 21.1302 17.1863 20.3356C17.1863 19.5409 16.5421 18.8968 15.7474 18.8968C14.9528 18.8968 14.3086 19.5409 14.3086 20.3356C14.3086 21.1302 14.9528 21.7744 15.7474 21.7744Z" fill="black"/>
<path d="M15.7299 13.1866C9.74541 13.1866 5.04016 18.6195 3.74072 20.2846C3.23444 20.9334 3.31415 21.8459 3.92624 22.4073C7.87352 26.0271 11.8448 27.8624 15.7299 27.8624C21.469 27.8624 26.4955 23.8044 28.1471 22.4709C28.4961 22.1891 28.7079 21.7967 28.7435 21.3657C28.7787 20.9403 28.6377 20.5255 28.3465 20.1979C26.4724 18.0898 21.4913 13.1866 15.7299 13.1866ZM15.7299 26.2158C12.2854 26.2158 8.70533 24.5414 5.08639 21.2368C6.33333 19.6534 10.5593 14.8331 15.7299 14.8331C20.8989 14.8331 25.6439 19.6489 27.0615 21.2311C25.4712 22.5146 20.8313 26.2158 15.7299 26.2158ZM27.1163 21.2925C27.1162 21.2923 27.1161 21.2922 27.1159 21.2921L27.7312 20.745L27.1163 21.2925Z" fill="black"/>
<path d="M15.7477 15.1957C12.7151 15.1957 10.248 17.5014 10.248 20.3356C10.248 23.1698 12.7151 25.4755 15.7477 25.4755C18.7802 25.4755 21.2473 23.1698 21.2473 20.3356C21.2473 17.5014 18.7802 15.1957 15.7477 15.1957ZM15.7477 23.829C13.6231 23.829 11.8947 22.2619 11.8947 20.3357C11.8947 18.4095 13.6231 16.8424 15.7477 16.8424C17.8721 16.8424 19.6007 18.4095 19.6007 20.3357C19.6007 22.2619 17.8722 23.829 15.7477 23.829Z" fill="black"/>
<path d="M31.7048 9.44813C31.5899 9.35193 28.8304 7.07553 23.7021 5.52512C19.0059 4.1052 11.3365 3.05642 1.46807 6.12376C0.902918 6.29946 0.437199 6.70874 0.190582 7.24658C-0.0570464 7.78594 -0.0636215 8.40653 0.172374 8.94903L1.62213 12.2829C1.86612 12.8439 2.34165 13.2681 2.92714 13.4467C3.12682 13.5076 3.33196 13.5376 3.53609 13.5376C3.92949 13.5376 4.31914 13.4262 4.65872 13.2096C8.08637 11.0248 17.5059 6.42186 30.918 10.8613C31.2931 10.9859 31.7037 10.8256 31.896 10.4802C32.0882 10.1349 32.008 9.70162 31.7048 9.44813ZM13.5699 7.97925C8.78747 8.93699 5.37945 10.7974 3.77351 11.8211C3.66426 11.8908 3.53104 11.9096 3.40753 11.8716C3.28391 11.834 3.18357 11.7445 3.13218 11.6261L1.68232 8.29223C1.63286 8.17863 1.63458 8.04783 1.68728 7.93323C1.73937 7.81963 1.8377 7.73304 1.95675 7.69612C11.3828 4.76645 18.679 5.74159 23.14 7.07543C23.8741 7.29493 24.5575 7.53103 25.1892 7.7738C21.2302 7.15676 17.3412 7.22382 13.5699 7.97925Z" fill="black"/>
<path d="M10.6991 7.79049C11.1181 7.79049 11.4578 7.45083 11.4578 7.03183C11.4578 6.61283 11.1181 6.27316 10.6991 6.27316C10.2801 6.27316 9.94043 6.61283 9.94043 7.03183C9.94043 7.45083 10.2801 7.79049 10.6991 7.79049Z" fill="black"/>
<path d="M8.63769 6.69962C5.40133 7.24991 3.47472 8.14989 3.39441 8.18802C3.01568 8.36707 2.85383 8.81944 3.03298 9.19816C3.16731 9.48231 3.4554 9.64446 3.75098 9.63202C3.8494 9.62787 3.94853 9.6044 4.04322 9.55959C4.06102 9.55119 5.85946 8.7112 8.8921 8.19551C9.30522 8.12521 9.58319 7.73343 9.51289 7.32041C9.44249 6.90719 9.04909 6.63043 8.63769 6.69962Z" fill="black"/>
</g>
<defs>
<clipPath id="clip0_416_751">
<rect width="32" height="32" fill="white"/>
</clipPath>
</defs>
</svg>
