<svg width="26" height="26" viewBox="0 0 26 26" fill="none" xmlns="http://www.w3.org/2000/svg">
<g clip-path="url(#clip0_416_776)">
<path d="M25.8419 4.06597C25.8419 3.08422 25.046 2.28829 24.0642 2.28829H21.0582V0.725214C21.0582 0.324784 20.7335 0 20.333 0H18.7667C18.3679 0 18.0407 0.324784 18.0407 0.725214V2.28911H8.05905V0.725214C8.05905 0.324784 7.73427 0 7.33386 0H5.87196C5.47154 0 5.14677 0.324784 5.14677 0.725214V2.28911H1.93192C0.950198 2.28911 0.154297 3.08504 0.154297 4.06679V10.4013H1.0908V24.173C1.0908 25.1835 1.9089 26.0008 2.91857 26.0008H22.9756C23.9861 26.0008 24.8034 25.1835 24.8034 24.173V10.4005H25.8451L25.8419 4.06597ZM21.8903 21.1562C21.8903 22.1667 21.073 22.984 20.0625 22.984H5.93445C4.92477 22.984 4.10667 22.1667 4.10667 21.1562V10.4005H21.8895V21.1562H21.8903Z" fill="#1A1B29"/>
<path d="M9.51399 12.3755H6.60254V15.3923H9.51399V12.3755Z" fill="#1A1B29"/>
<path d="M14.5062 12.3755H11.5947V15.3923H14.5062V12.3755Z" fill="#1A1B29"/>
<path d="M19.4972 12.3755H16.585V15.3923H19.4972V12.3755Z" fill="#1A1B29"/>
<path d="M9.51399 17.6798H6.60254V20.6957H9.51399V17.6798Z" fill="#1A1B29"/>
<path d="M14.5062 17.6798H11.5947V20.6957H14.5062V17.6798Z" fill="#1A1B29"/>
<path d="M19.4972 17.6798H16.585V20.6957H19.4972V17.6798Z" fill="#1A1B29"/>
</g>
<defs>
<clipPath id="clip0_416_776">
<rect width="26" height="26" fill="white"/>
</clipPath>
</defs>
</svg>
