<svg width="32" height="32" viewBox="0 0 32 32" fill="none" xmlns="http://www.w3.org/2000/svg">
<path d="M17.1561 17.4222C17.044 17.1408 16.725 17.0036 16.4436 17.1159C16.3141 17.1675 16.1804 17.1944 16.046 17.1961C15.8875 17.1951 15.7313 17.1647 15.5789 17.0978C15.3016 16.9757 14.9781 17.1017 14.8561 17.379C14.7342 17.6562 14.8601 17.9799 15.1373 18.1017C15.4259 18.2286 15.7271 18.2928 16.0331 18.2928C16.0417 18.2928 16.0504 18.2927 16.059 18.2926C16.3286 18.2894 16.5946 18.2362 16.8497 18.1346C17.1311 18.0226 17.2682 17.7036 17.1561 17.4222Z" fill="black"/>
<path d="M23.2212 20.9068C23.2165 20.9055 23.212 20.9044 23.2073 20.9032L19.6729 20.0331L19.6962 18.3533C20.3882 17.433 20.8881 16.2624 21.1353 14.9841L22.5865 14.9156C23.4112 14.9078 24.0796 14.2346 24.0796 13.4081V12.0154H24.9866C25.4944 12.0154 25.9075 11.6022 25.9075 11.0945V8.45181C25.9075 7.94413 25.4943 7.53094 24.9866 7.53094H24.0606C23.7776 3.33075 20.271 0 16.0004 0C11.7298 0 8.22316 3.33075 7.94022 7.53081H7.01428C6.50647 7.53081 6.09341 7.94394 6.09341 8.45169V11.0944C6.09341 11.6021 6.50653 12.0153 7.01428 12.0153H7.92128V13.4079C7.92128 14.2346 8.59009 14.9081 9.41503 14.9154L11.2946 15.0002C11.3353 15.002 11.3761 14.9994 11.4163 14.9922C11.9757 14.8918 12.533 14.7564 13.0721 14.6256C14.1495 14.3639 15.1682 14.1174 16.2033 14.1234C17.1677 14.1294 18.1143 14.3718 19.1164 14.6284C19.4202 14.7061 19.7306 14.7846 20.0437 14.8575C19.8122 16.0018 19.3643 16.9983 18.7762 17.7561C18.7378 17.792 18.7046 17.8334 18.6777 17.879C17.9415 18.7712 17.0031 19.3008 16.0005 19.3008C15.0197 19.3008 14.0828 18.7894 13.3397 17.8969C13.3362 17.8923 13.3322 17.888 13.3285 17.8836C12.9323 17.4044 12.5916 16.8168 12.3297 16.1396C12.2205 15.8571 11.9031 15.7167 11.6204 15.8259C11.338 15.9352 11.1975 16.2527 11.3067 16.5351C11.5842 17.2526 11.9417 17.8874 12.3591 18.4254L12.3392 20.0429L8.93441 20.9897C5.39153 21.8841 2.91797 25.0595 2.91797 28.7141V30.7106C2.91797 30.8539 2.97403 30.9915 3.07422 31.0939C3.66197 31.6952 4.14528 32 4.51091 32C4.90178 32 5.17991 31.7154 5.42528 31.4645C5.46153 31.4274 5.50978 31.378 5.55534 31.3342C5.60097 31.3781 5.64928 31.4274 5.68547 31.4645C5.93084 31.7156 6.20897 32 6.59984 32C6.99072 32 7.26878 31.7155 7.51416 31.4645C7.55041 31.4274 7.59866 31.3781 7.64428 31.3342C7.68991 31.3781 7.73816 31.4274 7.77441 31.4645C8.01978 31.7156 8.29791 32 8.68878 32C9.07966 32 9.35778 31.7154 9.60316 31.4645C9.63941 31.4274 9.68766 31.378 9.73322 31.3342C9.77884 31.3781 9.82716 31.4274 9.86334 31.4645C10.1087 31.7156 10.3868 32 10.7777 32C11.1686 32 11.4467 31.7155 11.692 31.4645C11.7283 31.4274 11.7765 31.378 11.8222 31.3342C11.8678 31.3781 11.9161 31.4274 11.9523 31.4645C12.1977 31.7156 12.4758 32 12.8666 32C13.2574 32 13.5356 31.7154 13.781 31.4645C13.8172 31.4274 13.8655 31.378 13.911 31.3342C13.9567 31.3781 14.005 31.4274 14.0412 31.4645C14.2865 31.7156 14.5647 32 14.9555 32C15.3464 32 15.6245 31.7155 15.8698 31.4645C15.9061 31.4274 15.9543 31.378 16 31.3342C16.0456 31.3781 16.0939 31.4274 16.1301 31.4645C16.3755 31.7156 16.6536 32 17.0444 32C17.4352 32 17.7134 31.7155 17.9588 31.4645C17.995 31.4274 18.0433 31.3781 18.0889 31.3342C18.1345 31.3781 18.1828 31.4274 18.219 31.4645C18.4643 31.7155 18.7425 32 19.1333 32C19.5242 32 19.8023 31.7155 20.0477 31.4645C20.0839 31.4274 20.1322 31.378 20.1778 31.3342C20.2234 31.3781 20.2717 31.4274 20.3079 31.4645C20.5533 31.7156 20.8314 32 21.2222 32C21.613 32 21.8912 31.7155 22.1366 31.4645C22.1728 31.4274 22.2211 31.3781 22.2667 31.3342C22.3123 31.3781 22.3606 31.4274 22.3968 31.4645C22.6422 31.7155 22.9203 32 23.3112 32C23.702 32 23.9802 31.7155 24.2255 31.4645C24.2618 31.4274 24.31 31.378 24.3557 31.3342C24.4013 31.3781 24.4496 31.4274 24.4858 31.4645C24.7312 31.7156 25.0093 32 25.4001 32C25.7909 32 26.0691 31.7155 26.3145 31.4645C26.3507 31.4274 26.399 31.3781 26.4446 31.3342C26.4902 31.3781 26.5385 31.4274 26.5747 31.4645C26.82 31.7155 27.0982 32 27.489 32C27.8546 32 28.338 31.6952 28.9257 31.0941C29.0258 30.9916 29.0819 30.854 29.0819 30.7108V28.5903C29.0828 25.0119 26.6724 21.8523 23.2212 20.9068ZM24.0796 8.62769H24.8107V10.9186H24.0796V8.62769ZM7.92116 10.9186H7.19003V8.62769H7.92116V10.9186ZM19.3883 13.5661C18.366 13.3043 17.3091 13.0337 16.21 13.0268C15.04 13.0204 13.9077 13.2942 12.8133 13.5599C12.3098 13.6821 11.7899 13.8083 11.2821 13.902L9.45353 13.8194C9.44528 13.8191 9.43703 13.8189 9.42884 13.8189C9.20228 13.8189 9.01803 13.6346 9.01803 13.4081V11.467V8.62775H21.082C21.3848 8.62775 21.6303 8.38231 21.6303 8.07938C21.6303 7.77644 21.3848 7.531 21.082 7.531H9.03941C9.32003 3.93613 12.3348 1.09687 16.0004 1.09687C19.8506 1.09687 22.9829 4.22919 22.9829 8.07938V11.467V13.4081C22.9829 13.6346 22.7986 13.8189 22.5721 13.8189C22.5635 13.8189 22.5548 13.8191 22.5462 13.8196L20.8136 13.9014C20.7928 13.8959 20.7717 13.8912 20.7499 13.8881C20.7452 13.8875 20.7407 13.8874 20.736 13.8869C20.288 13.7956 19.8315 13.6794 19.3883 13.5661ZM13.4425 19.5036C14.2114 20.0802 15.087 20.3977 16.0004 20.3977C16.912 20.3977 17.8004 20.0778 18.5835 19.4833L18.5735 20.2087C18.335 20.4003 17.8364 20.7508 17.1432 20.9822C16.7382 21.1129 16.2609 21.2051 15.7167 21.2087C14.4997 21.1929 13.7175 20.5392 13.4332 20.2531L13.4425 19.5036ZM27.9868 30.4796H27.9862C27.8182 30.6361 27.6408 30.7801 27.521 30.8576C27.4673 30.8078 27.4044 30.7436 27.3598 30.6979C27.1145 30.4469 26.8363 30.1624 26.4455 30.1624C26.0547 30.1624 25.7765 30.4469 25.5312 30.6979C25.4949 30.735 25.4467 30.7844 25.401 30.8283C25.3554 30.7844 25.3072 30.735 25.271 30.6979C25.0256 30.4469 24.7474 30.1624 24.3566 30.1624C23.9658 30.1624 23.6876 30.4469 23.4422 30.6979C23.406 30.735 23.3577 30.7844 23.3121 30.8283C23.2665 30.7843 23.2182 30.735 23.182 30.6979C22.9366 30.4469 22.6585 30.1624 22.2677 30.1624C21.8768 30.1624 21.5987 30.4469 21.3533 30.6979C21.317 30.735 21.2688 30.7844 21.2232 30.8283C21.1775 30.7844 21.1293 30.735 21.0931 30.6979C20.8477 30.4469 20.5695 30.1624 20.1787 30.1624C19.7879 30.1624 19.5097 30.4469 19.2643 30.6979C19.2281 30.735 19.1798 30.7844 19.1343 30.8283C19.0887 30.7843 19.0403 30.735 19.0042 30.6979C18.7588 30.4469 18.4807 30.1624 18.0898 30.1624C17.699 30.1624 17.4208 30.4469 17.1755 30.6979C17.1392 30.735 17.091 30.7844 17.0453 30.8283C16.9997 30.7844 16.9515 30.735 16.9153 30.6979C16.6699 30.4469 16.3917 30.1624 16.0009 30.1624C15.6101 30.1624 15.3319 30.4469 15.0865 30.6979C15.0503 30.735 15.002 30.7844 14.9565 30.8283C14.9108 30.7843 14.8625 30.735 14.8263 30.6979C14.581 30.4469 14.3028 30.1624 13.912 30.1624C13.5211 30.1624 13.243 30.4469 12.9977 30.6979C12.9614 30.735 12.9132 30.7844 12.8675 30.8283C12.8219 30.7844 12.7737 30.735 12.7375 30.6979C12.4921 30.4469 12.2139 30.1624 11.8231 30.1624C11.4323 30.1624 11.1541 30.4469 10.9087 30.6979C10.8725 30.735 10.8242 30.7844 10.7787 30.8283C10.733 30.7843 10.6847 30.735 10.6485 30.6979C10.4032 30.4469 10.125 30.1624 9.73416 30.1624C9.34328 30.1624 9.06522 30.4469 8.81984 30.6979C8.78359 30.735 8.73534 30.7844 8.68972 30.8283C8.64409 30.7844 8.59584 30.735 8.55959 30.6979C8.31422 30.4469 8.03609 30.1624 7.64522 30.1624C7.25434 30.1624 6.97622 30.4469 6.73084 30.6979C6.69459 30.735 6.64634 30.7844 6.60078 30.8283C6.55516 30.7843 6.50684 30.735 6.47066 30.6979C6.22528 30.4469 5.94716 30.1624 5.55628 30.1624C5.16541 30.1624 4.88734 30.4469 4.64197 30.6979C4.59734 30.7435 4.53453 30.8078 4.48091 30.8576C4.36134 30.7799 4.18397 30.6359 4.01566 30.4794V28.7144C4.01566 25.5609 6.15147 22.8212 9.20966 22.0519C9.21403 22.0507 9.21841 22.0497 9.22284 22.0484L12.708 21.0793C13.1555 21.5178 14.1705 22.3062 15.685 22.3062C15.697 22.3062 15.7087 22.3057 15.7208 22.3056C15.7346 22.3057 15.7482 22.3062 15.7622 22.3062C16.6761 22.3062 17.4528 22.0779 18.0583 21.802C18.0675 21.7979 18.0766 21.7938 18.0857 21.7896C18.093 21.7863 18.1002 21.7828 18.1075 21.7794C18.6441 21.5324 19.036 21.2521 19.2678 21.0625L22.939 21.9664C25.9117 22.7839 27.9871 25.5068 27.9871 28.5904V30.4796H27.9868Z" fill="black"/>
</svg>
