<svg width="122" height="122" viewBox="0 0 122 122" fill="none" xmlns="http://www.w3.org/2000/svg">
<g clip-path="url(#clip0_441_752)">
<path d="M32.8039 37.7806C52.5614 56.8347 66.9972 76.8917 81.5721 102.291C89.2368 93.9599 91.153 91.15 85.2059 79.1754C76.3895 61.422 52.0054 35.9337 37.6489 30.6216C35.9313 29.9862 34.3527 29.6684 33.0124 29.7081C32.228 29.7379 31.1657 30.5025 30.4509 31.5053C28.8524 33.7493 30.57 35.6259 32.8039 37.7806Z" fill="#06070C"/>
<path d="M88.1051 15.0626C67.3548 43.6984 45.5422 71.6193 18.4277 97.4352C28.2568 106.173 31.9998 105.786 42.0474 97.1274C59.293 82.2534 84.7791 46.6275 93.6353 26.5109C95.1146 23.1549 96.6336 17.7037 92.8311 15.5392C91.2822 14.6555 89.2469 14.2285 88.1051 15.0626Z" fill="#06070C"/>
<path d="M50.8437 0.863905L51.2805 0.794401L51.628 0.734826L51.7273 0.724896L52.1641 0.655392L52.4123 0.625604L52.601 0.595817L53.0378 0.536242L53.1868 0.516383L53.4747 0.476667L53.9115 0.427021L53.9612 0.417091L54.3484 0.377375L54.7356 0.337658H54.7753L55.2122 0.297941L55.51 0.268154L55.649 0.258224L56.0859 0.218508L56.2844 0.198649L56.5227 0.178791L56.9496 0.149003L57.0588 0.139074L57.3865 0.119216L57.8233 0.0993572H57.8332L58.2502 0.0794989L58.5977 0.0596405H58.6772L59.114 0.0397821L59.3622 0.0298529L59.5409 0.0199237L59.9679 0.00999451H60.1267H60.4047H60.8316H60.8912H61.2585H61.6557H61.6855L62.1124 0.0199237H62.4102H62.5393L62.9662 0.0298529L63.1747 0.0397821L63.3931 0.0497113L63.8201 0.0695697H63.9392L64.247 0.0894281L64.6739 0.109286H64.6938L65.1008 0.129145L65.1802 0.139074L65.5277 0.168862L65.9547 0.198649L66.2128 0.218508L66.3816 0.228437L66.9674 0.288012L67.2255 0.3178L67.6425 0.357516L67.712 0.367445L68.0595 0.407162L68.4566 0.456808H68.4765L68.8935 0.506454L69.1913 0.546171L69.3005 0.566029L69.7175 0.625604L69.926 0.655392L70.1345 0.68518L70.5515 0.754684L70.6706 0.774542L70.9685 0.824188L71.3855 0.893693H71.4153L71.8025 0.963197L72.15 1.02277L72.2195 1.0327L72.6265 1.11213L72.8847 1.16178L73.0435 1.19157L74.2746 1.44973L74.3441 1.46959L74.6817 1.54902L75.0689 1.63838H75.0888L75.7937 1.81711L75.9029 1.83697C76.578 2.00576 77.2432 2.18449 77.9084 2.38307C75.1086 5.48098 72.5273 8.43988 70.1444 11.2697C68.5559 10.9818 66.9475 10.7633 65.3292 10.6243C64.0782 10.5151 62.8272 10.4555 61.5663 10.4456H61.5167C60.9011 10.4456 60.2856 10.4456 59.67 10.4654H59.5906L59.3126 10.4754L59.0346 10.4853L58.7566 10.4952L58.4786 10.5052L58.3892 10.5151L58.2006 10.525L57.7538 10.5548L57.6446 10.5647L57.1085 10.6044H57.0886L56.8106 10.6243L56.5326 10.6442L56.4731 10.6541L55.9766 10.7037L55.7979 10.7236L55.6689 10.7335L55.1724 10.7832H55.1526L55.1029 10.7931L54.8249 10.8229L54.5469 10.8527L54.5072 10.8626L54.259 10.8924L53.981 10.9321L53.8619 10.952L53.703 10.9718L53.425 11.0115L53.2165 11.0413L53.1371 11.0513L52.8591 11.1009L52.5811 11.1505H52.5712L51.9358 11.2598H51.9259L51.3004 11.3789H51.2904L50.665 11.508H50.655L50.0295 11.647H50.0196L49.404 11.786H49.3941L48.7786 11.935H48.7686L48.1531 12.0938H48.1431L47.5276 12.2626H47.5177L46.912 12.4314H46.9021L46.2965 12.6101H46.2865L45.6908 12.7988H45.6809L45.0852 12.9974H45.0753L44.4895 13.196H44.4796L43.8938 13.4045H43.8839L43.2981 13.6229H43.2882L42.7123 13.8414H42.7024L41.5408 14.308H41.5308C32.6449 18.0017 25.1788 24.0982 19.7976 31.6841C12.3116 42.2587 8.83666 55.6532 11.1599 69.4151C11.7159 72.6818 12.5697 75.8392 13.6916 78.8379C11.6762 82.6407 9.59122 86.4535 7.45662 90.2366L7.30769 89.9685L7.27791 89.9089L6.60278 88.6082L6.59285 88.5883L6.58292 88.5784L6.45385 88.3103L6.25528 87.9032L6.17585 87.7543L6.03686 87.4763L5.91772 87.228L5.89786 87.1883L5.76879 86.9103L5.63972 86.6323L5.60001 86.5528L5.38158 86.0663L5.29223 85.8677L5.25251 85.7883L5.0043 85.2124L4.98445 85.1727L4.51781 84.0507L4.4086 83.7727L4.39867 83.7528L4.17032 83.1769L4.13061 83.0677L3.86254 82.3627L3.84268 82.3031L3.62426 81.7074L3.6044 81.6478L3.52498 81.4095L3.35619 80.923L3.31648 80.8038L3.2172 80.506L3.11791 80.2081V80.1982L3.01863 79.9102L2.7307 78.9967L2.65128 78.7386L2.64135 78.6989L2.55199 78.391L2.46264 78.0832L2.43285 78.0038L2.36335 77.7754L2.274 77.4676L2.2045 77.2492L2.18464 77.1499L2.10522 76.8421L2.02579 76.5343L2.01586 76.5045L1.94636 76.2265L1.86694 75.9187L1.82722 75.7598L1.78751 75.6109L1.70808 75.3031L1.63858 75.0151V74.9953L1.56908 74.6875L1.48966 74.3399L1.45987 74.2307L1.41023 74.0222L1.34073 73.7045L1.29109 73.4662L1.27123 73.3867L1.20173 73.069L1.14216 72.7513L1.13223 72.7016L1.09252 72.4335L1.03295 72.1158L0.993237 71.9271L0.973381 71.7981L0.91381 71.4803L0.85424 71.1626C-1.94556 54.561 2.24421 38.3764 11.289 25.667C20.3437 12.9378 34.2434 3.66394 50.8437 0.863905ZM56.7014 111.376C58.5679 111.535 60.4643 111.594 62.3705 111.535H62.4499L62.7279 111.525L63.0059 111.515L63.2839 111.505L63.5619 111.495L63.6513 111.485L63.8399 111.475L64.2867 111.445L64.3959 111.435L64.932 111.396H64.9519L65.2299 111.376L65.5079 111.346L65.5675 111.336L66.0639 111.286L66.2128 111.267L66.3419 111.257L66.8383 111.207H66.8581L66.9078 111.197L67.1858 111.167L67.4638 111.138L67.5035 111.128L67.7517 111.098L68.0297 111.058L68.1488 111.038L68.3077 111.018L68.5857 110.979L68.7942 110.949L68.8736 110.939L69.1516 110.899L69.4296 110.85H69.4395L70.0749 110.74H70.0849L70.7104 110.621H70.7203L71.3458 110.492H71.3557L71.9812 110.363H71.9911L72.6067 110.224H72.6166L73.2322 110.075H73.2421L73.8577 109.916H73.8676L74.4831 109.747H74.4931L75.0987 109.579H75.1086L75.7143 109.4H75.7242L76.3199 109.211H76.3298L76.9255 109.013H76.9355L77.5212 108.814H77.5312L78.1169 108.606H78.1269L78.7126 108.397H78.7226L79.2984 108.179H79.3083L80.47 107.712H80.4799C89.3559 104.018 96.8319 97.9218 102.213 90.3359C109.709 79.7911 113.184 66.3966 110.861 52.6347C110.305 49.368 109.451 46.2105 108.329 43.2119C110.344 39.409 112.429 35.5962 114.564 31.8132L114.713 32.0813L114.743 32.1409L115.418 33.4416L115.428 33.4614L115.438 33.4714L115.567 33.7395L115.765 34.1466L115.845 34.2955L115.984 34.5735L116.103 34.8217L116.123 34.8615L116.252 35.1395L116.381 35.4175L116.421 35.4969L116.639 35.9835L116.728 36.182L116.768 36.2615L117.016 36.8374L117.036 36.8771L117.503 37.9991L117.612 38.2771L117.622 38.297L117.85 38.8828L117.89 38.992L118.158 39.697L118.178 39.7665L118.396 40.3622L118.416 40.4218L118.496 40.6601L118.664 41.1466L118.704 41.2658L118.803 41.5637L118.903 41.8615V41.8715L119.002 42.1694L119.29 43.0828L119.369 43.341L119.379 43.3807L119.469 43.6885L119.558 43.9963L119.588 44.0758L119.647 44.3041L119.737 44.6119L119.796 44.8204L119.826 44.9197L119.906 45.2275L119.985 45.5353L119.995 45.5651L120.064 45.8432L120.144 46.151L120.184 46.3098L120.223 46.4588L120.303 46.7666L120.372 47.0545V47.0744L120.442 47.3822L120.511 47.6999L120.541 47.8091L120.591 48.0176L120.66 48.3354L120.71 48.5737L120.73 48.6531L120.799 48.9708L120.859 49.2886L120.869 49.3382L120.918 49.6063L120.978 49.924L121.017 50.1127L121.037 50.2517L121.097 50.5694L121.147 50.8872C123.946 67.4888 119.757 83.6634 110.712 96.3827C101.667 109.102 87.7673 118.376 71.1671 121.176L70.7302 121.245L70.3927 121.295L70.2934 121.315L69.8565 121.384L69.6083 121.424L69.4197 121.454L68.9828 121.514L68.8339 121.533L68.546 121.573L68.1091 121.623L68.0595 121.633L67.6723 121.672L67.2851 121.712H67.2454L66.8085 121.752L66.5106 121.782L66.3717 121.792L65.9348 121.831L65.7362 121.851L65.498 121.871L65.071 121.901L64.9618 121.911L64.6342 121.931L64.1973 121.95H64.1874L63.7704 121.97L63.4229 121.99H63.3435L62.9166 122.01L62.6684 122.02L62.4897 122.03L62.0627 122.04H61.9039H61.6259H61.199H61.1394H60.772H60.3749H60.3451L59.9182 122.03L59.6204 122.02H59.4913L59.0644 122.01L58.8559 122L58.6374 121.99L58.2105 121.97H58.0914L57.7836 121.95L57.3567 121.931H57.3368L56.9298 121.901H56.8503L56.5028 121.871L56.0759 121.841L55.8178 121.821L55.649 121.811L55.0632 121.762L54.8051 121.732L54.3881 121.692L54.3186 121.682L53.9711 121.643L53.574 121.593H53.5541L53.1371 121.543L52.8393 121.504L52.7301 121.484L52.3131 121.424L52.1046 121.394L51.8961 121.365L51.4791 121.295L51.3599 121.275L51.0621 121.226L50.6451 121.156H50.6153L50.2281 121.087L49.8806 121.027L49.8111 121.017L49.404 120.938L49.1459 120.888L48.9871 120.858L47.7559 120.6L47.6864 120.58L47.3489 120.501L46.9617 120.411H46.9418L46.2369 120.233L46.1376 120.203C45.4625 120.034 44.7973 119.845 44.1321 119.657C46.9319 116.559 49.5133 113.6 51.8961 110.77C53.4648 111.018 55.0732 111.237 56.7014 111.376Z" fill="#06070C"/>
</g>
<defs>
<clipPath id="clip0_441_752">
<rect width="122" height="122" fill="white"/>
</clipPath>
</defs>
</svg>
