<svg width="20" height="20" viewBox="0 0 20 20" fill="none" xmlns="http://www.w3.org/2000/svg">
<g clip-path="url(#clip0_416_871)">
<path fill-rule="evenodd" clip-rule="evenodd" d="M10 0C15.5192 0 20 4.48083 20 10C20 15.5192 15.5192 20 10 20C4.48083 20 0 15.5192 0 10C0 4.48083 4.48083 0 10 0ZM10 0.833333C15.0592 0.833333 19.1667 4.94083 19.1667 10C19.1667 15.0592 15.0592 19.1667 10 19.1667C4.94083 19.1667 0.833333 15.0592 0.833333 10C0.833333 4.94083 4.94083 0.833333 10 0.833333ZM10 10H15V10.8333H9.16667V3.33333H10V10Z" fill="#56586F"/>
</g>
<defs>
<clipPath id="clip0_416_871">
<rect width="20" height="20" fill="white"/>
</clipPath>
</defs>
</svg>
