<svg width="24" height="24" viewBox="0 0 24 24" fill="none" xmlns="http://www.w3.org/2000/svg">
<g clip-path="url(#clip0_31_224)">
<path d="M8.77493 24C6.82493 24 5.47493 22.275 4.49993 20.775C2.02493 16.95 1.49993 12.15 3.29993 9.375C4.49993 7.5 6.44993 6.375 8.32493 6.375C9.29993 6.375 10.1249 6.675 10.7999 6.9C11.3249 7.125 11.8499 7.275 12.3749 7.275C12.8249 7.275 13.1999 7.125 13.7249 6.9C14.3999 6.675 15.2249 6.375 16.3499 6.375C17.9999 6.375 19.7249 7.275 20.9249 8.775C21.0749 8.925 21.1499 9.15 21.0749 9.375C20.9999 9.6 20.9249 9.75 20.6999 9.9C19.3499 10.65 18.5999 12 18.7499 13.5C18.8249 15.075 19.7999 16.35 21.2249 16.875C21.4499 16.95 21.5999 17.1 21.6749 17.325C21.7499 17.55 21.7499 17.7 21.6749 17.925C21.1499 19.05 20.9249 19.575 20.2499 20.55C19.1249 22.2 17.7749 23.925 15.9749 23.925C15.1499 23.925 14.6249 23.7 14.1749 23.475C13.7249 23.25 13.2749 23.025 12.3749 23.025C11.5499 23.025 11.0999 23.25 10.5749 23.475C10.1249 23.775 9.59993 24 8.77493 24Z" fill="white"/>
<path d="M11.7748 6.525C11.6998 6.525 11.6998 6.525 11.6248 6.525C11.2498 6.525 10.9498 6.225 10.8748 5.925C10.6498 4.65 11.0998 3.15 12.0748 1.95C12.9748 0.824999 14.4748 0.0749992 15.8248 -0.0750008C16.1998 -0.0750008 16.5748 0.149999 16.6498 0.599999C16.8748 1.95 16.4248 3.375 15.4498 4.575C14.6248 5.775 13.1248 6.525 11.7748 6.525Z" fill="white"/>
</g>
<defs>
<clipPath id="clip0_31_224">
<rect width="24" height="24" fill="white"/>
</clipPath>
</defs>
</svg>
