<svg width="22" height="10" viewBox="0 0 22 10" fill="none" xmlns="http://www.w3.org/2000/svg">
<g clip-path="url(#clip0_31_256)">
<path d="M0.188072 1.38094C0.115314 1.29703 0.0595021 1.19861 0.0239833 1.09157C-0.0115355 0.984537 -0.0260287 0.871095 -0.0186269 0.758054C-0.0112251 0.645012 0.0179193 0.5347 0.0670576 0.433736C0.116196 0.332771 0.184316 0.243235 0.26733 0.1705C0.350344 0.097764 0.446542 0.0433273 0.550153 0.0104556C0.653763 -0.022416 0.76265 -0.0330452 0.870282 -0.0207943C0.977914 -0.00854335 1.08207 0.0263352 1.17651 0.081749C1.27094 0.137163 1.35371 0.21197 1.41984 0.301682C2.22328 1.32239 3.11509 2.26324 4.08391 3.11225C6.3523 5.05904 8.70663 6.04274 11.0413 6.04086C13.3759 6.03899 15.7177 5.05904 17.97 3.08977C18.9198 2.24868 19.7931 1.31721 20.5785 0.307303C20.7148 0.139253 20.9087 0.0340161 21.1184 0.0143132C21.3282 -0.00538982 21.5369 0.0620215 21.6996 0.201993C21.8622 0.341965 21.9658 0.543268 21.9878 0.762442C22.0099 0.981616 21.9487 1.20108 21.8175 1.37344C21.2582 2.08627 20.6604 2.76504 20.0271 3.40642L21.0852 4.42197C21.1711 4.49326 21.2421 4.58226 21.2938 4.68346C21.3455 4.78465 21.3768 4.89589 21.3857 5.01025C21.3946 5.12462 21.381 5.23969 21.3456 5.34831C21.3103 5.45693 21.254 5.55679 21.1802 5.6417C21.1065 5.7266 21.0168 5.79474 20.9169 5.84189C20.8169 5.88903 20.7087 5.91418 20.5991 5.91577C20.4895 5.91736 20.3807 5.89535 20.2795 5.85112C20.1784 5.80688 20.087 5.74136 20.011 5.65862L18.8311 4.5344C18.0824 5.17809 17.2774 5.74646 16.4267 6.23198L17.0945 7.73095C17.1711 7.93088 17.1714 8.15401 17.0952 8.35415C17.0191 8.55428 16.8723 8.71611 16.6853 8.80615C16.4983 8.89618 16.2854 8.90752 16.0906 8.83782C15.8958 8.76813 15.7341 8.62273 15.6389 8.43172L14.9693 6.93275C13.9624 7.34336 12.903 7.59592 11.8254 7.68223V9.16247C11.8157 9.37799 11.727 9.58131 11.5779 9.73024C11.4287 9.87916 11.2304 9.96224 11.0243 9.96224C10.8181 9.96224 10.6198 9.87916 10.4707 9.73024C10.3215 9.58131 10.2328 9.37799 10.2231 9.16247V7.68223C9.14816 7.59382 8.0914 7.34132 7.08635 6.93275L6.41317 8.43172C6.37157 8.53626 6.31019 8.63091 6.23273 8.70997C6.15526 8.78903 6.06331 8.85088 5.96241 8.89178C5.86151 8.93268 5.75374 8.95179 5.6456 8.94796C5.53746 8.94413 5.43117 8.91744 5.33314 8.86949C5.23512 8.82155 5.14737 8.75334 5.07519 8.66898C5.00301 8.58461 4.94788 8.48584 4.91313 8.3786C4.87838 8.27135 4.86472 8.15786 4.87298 8.04495C4.88124 7.93204 4.91124 7.82204 4.96118 7.72158L5.63078 6.22261C4.78065 5.7378 3.97462 5.17271 3.22274 4.5344L2.05005 5.65862C1.97408 5.74136 1.88268 5.80688 1.78151 5.85112C1.68034 5.89535 1.57156 5.91736 1.46193 5.91577C1.3523 5.91418 1.24415 5.88903 1.14419 5.84189C1.04422 5.79474 0.954586 5.7266 0.880832 5.6417C0.807078 5.55679 0.750781 5.45693 0.715435 5.34831C0.680088 5.23969 0.666445 5.12462 0.675353 5.01025C0.684261 4.89589 0.715529 4.78465 0.767218 4.68346C0.818907 4.58226 0.889913 4.49326 0.975832 4.42197L2.01961 3.42141C1.3724 2.77838 0.760888 2.09711 0.188072 1.38094Z" fill="#C4C4CA"/>
</g>
<defs>
<clipPath id="clip0_31_256">
<rect width="22" height="10" fill="white"/>
</clipPath>
</defs>
</svg>
