<svg width="24" height="24" viewBox="0 0 24 24" fill="none" xmlns="http://www.w3.org/2000/svg">
<g clip-path="url(#clip0_31_190)">
<path d="M12 0C18.6277 0 24 5.373 24 12C24 18.6278 18.6277 24 12 24C5.37217 24 0 18.6277 0 12C0 5.373 5.37225 0 12 0Z" fill="#3B5998"/>
<path d="M13.461 8.26121H15.0075V5.97671H13.1895V5.98495C10.9867 6.06296 10.5353 7.30119 10.4955 8.60171H10.4909V9.74248H8.99097V11.9797H10.4909V17.9767H12.7515V11.9797H14.6032L14.9609 9.74248H12.7522V9.05325C12.7522 8.61373 13.0447 8.26121 13.461 8.26121Z" fill="white"/>
</g>
<defs>
<clipPath id="clip0_31_190">
<rect width="24" height="24" fill="white"/>
</clipPath>
</defs>
</svg>
