<svg width="25" height="24" viewBox="0 0 25 24" fill="none" xmlns="http://www.w3.org/2000/svg">
<g clip-path="url(#clip0_31_252)">
<path d="M12.1928 23.8286C11.9655 23.8286 11.7475 23.7383 11.5867 23.5775C11.426 23.4168 11.3357 23.1987 11.3357 22.9714C11.3357 22.7441 11.426 22.5261 11.5867 22.3653C11.7475 22.2046 11.9655 22.1143 12.1928 22.1143C14.8753 22.1143 17.4479 21.0487 19.3447 19.1519C21.2415 17.2551 22.3071 14.6825 22.3071 12C22.3071 9.31751 21.2415 6.74491 19.3447 4.84811C17.4479 2.95131 14.8753 1.8857 12.1928 1.8857C11.9655 1.8857 11.7475 1.7954 11.5867 1.63465C11.426 1.47391 11.3357 1.25589 11.3357 1.02856C11.3357 0.801232 11.426 0.583214 11.5867 0.422469C11.7475 0.261723 11.9655 0.171417 12.1928 0.171417C15.33 0.171417 18.3386 1.41764 20.5569 3.63593C22.7752 5.85421 24.0214 8.86286 24.0214 12C24.0214 15.1371 22.7752 18.1458 20.5569 20.3641C18.3386 22.5823 15.33 23.8286 12.1928 23.8286Z" fill="white"/>
<path d="M13.9579 12.8571H1.83517C1.60784 12.8571 1.38982 12.7668 1.22908 12.6061C1.06833 12.4453 0.978027 12.2273 0.978027 12C0.978027 11.7727 1.06833 11.5546 1.22908 11.3939C1.38982 11.2332 1.60784 11.1429 1.83517 11.1429H13.9579C14.1852 11.1429 14.4033 11.2332 14.564 11.3939C14.7247 11.5546 14.8151 11.7727 14.8151 12C14.8151 12.2273 14.7247 12.4453 14.564 12.6061C14.4033 12.7668 14.1852 12.8571 13.9579 12.8571Z" fill="white"/>
<path d="M9.57481 18.1289C9.40469 18.1295 9.23825 18.0795 9.09667 17.9851C8.95509 17.8908 8.84478 17.7565 8.77978 17.5993C8.71478 17.4421 8.69803 17.2691 8.73166 17.1023C8.76529 16.9356 8.84778 16.7826 8.96864 16.6629L13.3462 12.2846C13.384 12.2468 13.414 12.202 13.4345 12.1526C13.4549 12.1033 13.4655 12.0504 13.4655 11.9969C13.4655 11.9435 13.4549 11.8906 13.4345 11.8412C13.414 11.7919 13.384 11.747 13.3462 11.7093L8.96864 7.33715C8.88675 7.25811 8.82142 7.16355 8.77647 7.05898C8.73152 6.95442 8.70784 6.84195 8.70682 6.72814C8.7058 6.61433 8.72746 6.50146 8.77052 6.39611C8.81359 6.29076 8.87721 6.19504 8.95767 6.11453C9.03812 6.03403 9.13381 5.97036 9.23913 5.92723C9.34446 5.8841 9.45732 5.86239 9.57114 5.86334C9.68495 5.8643 9.79743 5.88791 9.90201 5.9328C10.0066 5.9777 10.1012 6.04297 10.1803 6.12481L14.5572 10.5004C14.9538 10.8987 15.1764 11.4379 15.1764 12C15.1764 12.5621 14.9538 13.1013 14.5572 13.4997L10.1789 17.878C10.0996 17.9574 10.0055 18.0205 9.90184 18.0635C9.79818 18.1066 9.68705 18.1288 9.57481 18.1289Z" fill="white"/>
</g>
<defs>
<clipPath id="clip0_31_252">
<rect width="24" height="24" fill="white" transform="translate(0.5)"/>
</clipPath>
</defs>
</svg>
