<svg width="21" height="21" viewBox="0 0 21 21" fill="none" xmlns="http://www.w3.org/2000/svg">
<g clip-path="url(#clip0_231_38)">
<path d="M10.1101 16.8365C4.36782 16.8365 0.234319 10.9015 0.0611024 10.6488C-0.0253317 10.5234 -0.0194068 10.3557 0.0746949 10.2362C0.270217 9.98803 4.92128 4.16348 10.5001 4.16348C16.7572 4.16348 20.7725 10.0079 20.9405 10.2564C21.0207 10.3756 21.0203 10.5317 20.9381 10.6499C20.7725 10.8897 16.8108 16.5114 10.5175 16.8261C10.3813 16.8327 10.2453 16.8365 10.1101 16.8365ZM0.790216 10.4655C1.60088 11.5452 5.51377 16.3789 10.4834 16.1304C15.7939 15.8655 19.4621 11.4417 20.2205 10.4495C19.4624 9.43457 15.7555 4.86088 10.5005 4.86088C5.82047 4.86088 1.66292 9.43945 0.790216 10.4655Z" fill="#C4C4CA"/>
<path d="M10.5002 12.9352C9.15771 12.9352 8.06543 11.8425 8.06543 10.5004C8.06543 9.15819 9.15771 8.06592 10.5002 8.06592C11.8427 8.06592 12.935 9.15854 12.935 10.5004C12.935 11.8425 11.8427 12.9352 10.5002 12.9352Z" fill="#C4C4CA"/>
<path d="M10.5001 14.852C8.10052 14.852 6.14844 12.8996 6.14844 10.5003C6.14844 8.10145 8.10087 6.14902 10.5001 6.14902C12.8994 6.14902 14.8518 8.10145 14.8518 10.5003C14.8518 12.8996 12.9001 14.852 10.5001 14.852ZM10.5001 6.84537C8.48495 6.84537 6.84549 8.48483 6.84549 10.5C6.84549 12.5148 8.48495 14.1543 10.5001 14.1543C12.5153 14.1543 14.1547 12.5148 14.1547 10.5C14.1547 8.48483 12.5156 6.84537 10.5001 6.84537Z" fill="#C4C4CA"/>
</g>
<defs>
<clipPath id="clip0_231_38">
<rect width="21" height="21" fill="white"/>
</clipPath>
</defs>
</svg>
