<svg width="36" height="36" viewBox="0 0 36 36" fill="none" xmlns="http://www.w3.org/2000/svg">
<path d="M31.5 18C31.5 10.5465 25.4535 4.5 18 4.5C10.5465 4.5 4.5 10.5465 4.5 18C4.5 25.4535 10.5465 31.5 18 31.5C25.4535 31.5 31.5 25.4535 31.5 18Z" stroke="#FFB703" stroke-width="2.875" stroke-linecap="round" stroke-linejoin="round"/>
<path d="M17.5947 11.6715L17.9997 20.247L18.4017 11.6715C18.4059 11.5891 18.3845 11.5074 18.3405 11.4375C18.2964 11.3677 18.2319 11.3132 18.1557 11.2815C18.1049 11.2602 18.0503 11.2494 17.9952 11.25V11.25C17.9411 11.2508 17.8877 11.2623 17.8382 11.2841C17.7886 11.3058 17.744 11.3372 17.7068 11.3765C17.6696 11.4158 17.6406 11.4622 17.6216 11.5128C17.6027 11.5635 17.594 11.6174 17.5962 11.6715V11.6715H17.5947Z" stroke="#FFB703" stroke-width="2.875" stroke-linecap="round" stroke-linejoin="round"/>
<path d="M18.0002 25.863C17.6275 25.863 17.27 25.7149 17.0064 25.4513C16.7428 25.1878 16.5947 24.8303 16.5947 24.4575C16.5947 24.0847 16.7428 23.7272 17.0064 23.4637C17.27 23.2001 17.6275 23.052 18.0002 23.052C18.373 23.052 18.7305 23.2001 18.9941 23.4637C19.2576 23.7272 19.4057 24.0847 19.4057 24.4575C19.4057 24.8303 19.2576 25.1878 18.9941 25.4513C18.7305 25.7149 18.373 25.863 18.0002 25.863Z" fill="#FFB703"/>
</svg>
