<svg width="26" height="26" viewBox="0 0 26 26" fill="none" xmlns="http://www.w3.org/2000/svg">
<g clip-path="url(#clip0_78_211)">
<path d="M17.3527 5.67451L18.0801 1.79226C18.1507 1.41542 17.9024 1.05267 17.5256 0.982085C17.1485 0.911498 16.786 1.15974 16.7154 1.53658L15.851 6.15081C16.2854 5.78434 16.8277 5.62907 17.3527 5.67451Z" fill="#FF8A00"/>
<path d="M17.826 8.48954C18.2501 8.13035 18.3028 7.49534 17.9436 7.0712C17.5843 6.647 16.9493 6.59439 16.5252 6.95353L14.7393 8.46592C15.202 8.95315 15.6436 9.47297 16.053 9.99093L17.826 8.48954Z" fill="#FF8A00"/>
<path d="M22.1574 18.5674L18.1909 15.1483C17.765 15.7905 17.2371 16.4187 16.6238 16.9863L20.5804 20.3969C21.0856 20.8324 21.8481 20.7759 22.2836 20.2707C22.7191 19.7655 22.6626 19.0029 22.1574 18.5674Z" fill="#FF8A00"/>
<path d="M7.86071 5.97705C9.01542 5.56277 9.61564 4.29085 9.20136 3.13613C9.18219 3.08263 9.16054 3.03076 9.13776 2.97974L5.21362 5.04273C5.75041 5.92535 6.85044 6.33951 7.86071 5.97705Z" fill="#FF8A00"/>
<path d="M18.1757 23.9088H14.5763V19.7581L16.2965 19.7503C16.874 19.7477 17.34 19.2775 17.3374 18.7C17.3348 18.124 16.8672 17.659 16.2919 17.659C16.2903 17.659 16.2886 17.659 16.287 17.659L15.811 17.6612C15.2983 18.0422 14.6928 18.4148 13.9893 18.7306C12.6058 19.3515 11.1279 19.6239 9.62982 19.6115C9.45397 19.61 9.29797 19.4984 9.23995 19.3324L7.13 13.2942L5.42209 9.51926C5.184 8.99313 4.5645 8.75954 4.03837 8.99764C3.51217 9.23567 3.27865 9.85517 3.51668 10.3813L7.49354 19.1711C7.6629 19.5454 8.03563 19.7857 8.44624 19.7857C8.44776 19.7857 8.4494 19.7857 8.45098 19.7857L9.99533 19.7787V23.9087H6.39605C5.81855 23.9087 5.35038 24.3768 5.35038 24.9543C5.35038 25.5318 5.81855 26 6.39605 26H18.1757C18.7532 26 19.2214 25.5318 19.2214 24.9543C19.2213 24.3769 18.7532 23.9088 18.1757 23.9088Z" fill="#FF8A00"/>
<path d="M6.60699 8.43446C6.48922 8.7118 6.49254 9.02842 6.61618 9.30322C6.62115 9.31421 6.6256 9.32538 6.6296 9.33676L9.92838 18.7771C12.3286 18.7345 14.3953 17.922 16.0742 16.3603C17.0736 15.4307 17.6404 14.4886 17.8505 14.0993C17.2502 13.0849 14.3405 8.3486 11.6194 7.04719C11.3091 6.89879 10.9559 6.82347 10.5699 6.82347C10.2497 6.82347 9.91146 6.87895 9.64197 6.97564L7.23867 7.83791C6.95503 7.93973 6.72477 8.15713 6.60699 8.43446Z" fill="#FF8A00"/>
<path d="M4.13368 4.66917L9.45468 1.87183C9.58587 1.80282 9.63041 1.63622 9.55047 1.51072C8.64676 0.0917553 6.78967 -0.421469 5.27254 0.376134C3.75604 1.1734 3.1251 2.99379 3.78192 4.54333C3.84022 4.68095 4.00366 4.7375 4.13368 4.66917Z" fill="#FF8A00"/>
</g>
<defs>
<clipPath id="clip0_78_211">
<rect width="26" height="26" fill="white"/>
</clipPath>
</defs>
</svg>
