<svg width="26" height="26" viewBox="0 0 26 26" fill="none" xmlns="http://www.w3.org/2000/svg">
<path d="M13.3203 9.76625C12.8916 9.71631 12.4573 9.75224 12.0427 9.87196C11.628 9.99168 11.2414 10.1928 10.9053 10.4635C10.5692 10.7343 10.2904 11.0693 10.0852 11.4489C9.87996 11.8286 9.7524 12.2453 9.70995 12.6748C9.66751 13.1043 9.71103 13.5379 9.83798 13.9504C9.96492 14.3629 10.1728 14.7459 10.4493 15.0772C10.7259 15.4085 11.0657 15.6814 11.4489 15.88C11.8321 16.0786 12.251 16.1988 12.6811 16.2338C13.5305 16.3027 14.3729 16.0354 15.027 15.4893C15.6811 14.9432 16.0946 14.162 16.1784 13.314C16.2622 12.4661 16.0097 11.6191 15.4751 10.9555C14.9405 10.2919 14.1667 9.86487 13.3203 9.76625ZM21.1441 13C21.142 13.3534 21.1159 13.7063 21.0661 14.0563L23.3628 15.8568C23.4624 15.9398 23.5295 16.0553 23.5521 16.183C23.5747 16.3107 23.5514 16.4423 23.4863 16.5544L21.3142 20.3125C21.2482 20.4234 21.1453 20.5076 21.0235 20.5501C20.9016 20.5927 20.7687 20.5911 20.648 20.5454L18.3676 19.6278C18.2419 19.5776 18.1057 19.5594 17.9712 19.5749C17.8367 19.5904 17.7083 19.6391 17.5973 19.7167C17.2492 19.9564 16.8835 20.1694 16.5031 20.3537C16.3837 20.4118 16.2804 20.4984 16.2024 20.606C16.1244 20.7135 16.074 20.8385 16.0557 20.9701L15.7134 23.4011C15.6911 23.5295 15.6249 23.6461 15.5261 23.7311C15.4273 23.8161 15.302 23.8641 15.1717 23.8669H10.8276C10.6995 23.8649 10.5759 23.8192 10.4772 23.7375C10.3785 23.6558 10.3107 23.5428 10.2848 23.4173L9.94356 20.9885C9.92445 20.8554 9.8727 20.729 9.79294 20.6207C9.71318 20.5124 9.60787 20.4255 9.4864 20.3678C9.10661 20.1842 8.74216 19.9705 8.39656 19.7286C8.28593 19.6517 8.1579 19.6035 8.02401 19.5884C7.89012 19.5732 7.75457 19.5916 7.62957 19.6419L5.34915 20.5606C5.22829 20.6065 5.09511 20.6083 4.97304 20.5657C4.85097 20.5231 4.74784 20.4388 4.68181 20.3277L2.51298 16.5696C2.44768 16.4575 2.42426 16.3259 2.44687 16.1981C2.46948 16.0704 2.53667 15.9548 2.63648 15.8719L4.57781 14.3488C4.6839 14.2642 4.7672 14.1546 4.82017 14.0297C4.87314 13.9049 4.8941 13.7688 4.88115 13.6338C4.84273 13.2139 4.84273 12.7915 4.88115 12.3717C4.89269 12.2373 4.8706 12.1022 4.81689 11.9785C4.76318 11.8548 4.67953 11.7465 4.57348 11.6632L2.63323 10.14C2.53493 10.0567 2.46903 9.94156 2.44705 9.81463C2.42507 9.68769 2.4484 9.55706 2.51298 9.44559L4.68506 5.6875C4.75109 5.57635 4.85422 5.49205 4.97629 5.44944C5.09836 5.40684 5.23154 5.40866 5.3524 5.45459L7.63281 6.37217C7.75839 6.42205 7.89436 6.44004 8.02858 6.42453C8.1628 6.40903 8.29109 6.36052 8.40198 6.28334C8.7501 6.044 9.11587 5.83142 9.49615 5.64742C9.61593 5.58932 9.71953 5.50258 9.79776 5.39486C9.876 5.28715 9.92645 5.1618 9.94465 5.02992L10.2859 2.6C10.3084 2.47171 10.3747 2.35517 10.4734 2.27024C10.5722 2.1853 10.6973 2.13722 10.8276 2.13417H15.1717C15.3002 2.13602 15.4241 2.18172 15.523 2.26369C15.622 2.34566 15.6899 2.45897 15.7156 2.58484L16.0568 5.01259C16.0758 5.14562 16.1274 5.27189 16.207 5.38019C16.2865 5.48848 16.3916 5.57544 16.5129 5.63334C16.8931 5.8175 17.2571 6.02984 17.6027 6.2725C17.7135 6.3496 17.8417 6.39789 17.9758 6.41302C18.1099 6.42816 18.2457 6.40965 18.3708 6.35917L20.6501 5.4405C20.771 5.39458 20.9042 5.39275 21.0263 5.43536C21.1483 5.47796 21.2515 5.56226 21.3175 5.67342L23.4896 9.4315C23.5547 9.54372 23.578 9.67543 23.5552 9.80318C23.5324 9.93093 23.465 10.0464 23.365 10.1292L21.4247 11.6523C21.3179 11.7364 21.2337 11.8458 21.18 11.9707C21.1262 12.0956 21.1046 12.232 21.1171 12.3673C21.1344 12.5786 21.1452 12.7898 21.1452 13.0011L21.1441 13Z" stroke="#FF8A00" stroke-width="2.875" stroke-linecap="round" stroke-linejoin="round"/>
</svg>
