<svg width="20" height="20" viewBox="0 0 20 20" fill="none" xmlns="http://www.w3.org/2000/svg">
<g clip-path="url(#clip0_200_47)">
<path d="M12.0134 1.21632C13.1895 1.58045 14.2492 2.24754 15.0863 3.1507C15.9921 4.1175 16.6002 5.32504 16.8376 6.62867V6.67427C16.8718 6.87129 16.8962 7.05854 16.9108 7.23439C16.9287 7.43955 16.9385 7.64634 16.9385 7.85313V9.50257C16.9385 9.96011 16.9385 10.4258 16.9711 10.8931C17.0139 11.7315 17.2561 12.5476 17.6774 13.2736C18.1516 14.0172 18.7847 14.6461 19.5313 15.1152C19.743 15.2537 19.8965 15.4652 19.9626 15.7095C20.0121 15.9002 20.0076 16.1009 19.9496 16.2892C19.8924 16.4773 19.7849 16.6462 19.6387 16.7777C19.4476 16.9453 19.2012 17.0364 18.947 17.0333H13.3903V17.0463C12.7165 20.9867 7.26891 20.9753 6.61136 17.0333H1.04983C0.781814 17.0393 0.521996 16.9406 0.32555 16.7581C0.185813 16.6245 0.0846897 16.4557 0.0328417 16.2694C-0.0190063 16.0832 -0.0196585 15.8864 0.0309539 15.6997C0.101196 15.4476 0.264711 15.2316 0.488311 15.0957C1.40953 14.472 2.05407 13.793 2.46097 13.018C2.86787 12.2429 3.05504 11.3181 3.05504 10.2043V7.85313C3.05504 7.66425 3.06481 7.45909 3.08434 7.23927C3.10387 7.01946 3.13154 6.82895 3.16735 6.62705C3.40164 5.36238 3.98049 4.18701 4.84007 3.23054C5.69965 2.27407 6.80657 1.57366 8.03877 1.20655C8.78909 -0.402181 11.2631 -0.405437 12.0134 1.21632ZM14.2757 3.90784C13.5151 3.08612 12.537 2.49721 11.4551 2.20956C11.3632 2.1843 11.2793 2.13584 11.2115 2.06884C11.1436 2.00184 11.0942 1.91854 11.0677 1.82692C10.7894 0.871124 9.27737 0.849956 8.99743 1.81878C8.97017 1.91318 8.9185 1.99873 8.84763 2.06677C8.77676 2.13481 8.68919 2.18294 8.59378 2.2063C7.5056 2.48097 6.51881 3.06167 5.75014 3.87972C4.98146 4.69776 4.46305 5.71893 4.25621 6.82244C4.22583 6.99395 4.20305 7.16492 4.18786 7.33534C4.17321 7.49817 4.1667 7.661 4.1667 7.85313V10.2043C4.1667 11.4923 3.94209 12.5751 3.44241 13.5309C2.9639 14.446 2.2445 15.2227 1.23864 15.9277H18.7614C17.9442 15.3842 17.2522 14.6726 16.7318 13.8403C16.2212 12.967 15.9255 11.9847 15.8692 10.9745C15.8334 10.5056 15.835 9.99756 15.8366 9.50908V7.85313C15.8366 7.67402 15.8366 7.4998 15.8155 7.32883C15.7943 7.15786 15.7813 7.00318 15.7569 6.86477L15.7471 6.82081C15.5476 5.72908 15.0392 4.71753 14.2823 3.90621L14.2757 3.90784Z" fill="white"/>
</g>
<defs>
<clipPath id="clip0_200_47">
<rect width="20" height="20" fill="white"/>
</clipPath>
</defs>
</svg>
