<svg width="20" height="20" viewBox="0 0 20 20" fill="none" xmlns="http://www.w3.org/2000/svg">
<g clip-path="url(#clip0_200_44)">
<path d="M8.13613 0H8.13874V0.00116862C10.3847 0.00183641 12.4184 0.936235 13.8901 2.4461C15.3593 3.95379 16.2695 6.03795 16.271 8.3398H16.2721V8.34531V8.35199H16.271C16.2702 9.27971 16.1217 10.1725 15.8488 11.0051C15.803 11.1448 15.7552 11.2791 15.706 11.4073V11.4084C15.4707 12.0195 15.1665 12.5971 14.8032 13.1292L19.5366 17.493L19.5395 17.4956L19.5651 17.52L19.5669 17.5218C19.8341 17.7828 19.9797 18.1322 19.998 18.4868C20.016 18.8374 19.9097 19.196 19.6759 19.4836L19.6742 19.4863L19.6457 19.5202L19.64 19.526L19.6162 19.5528L19.6136 19.5563C19.3589 19.8304 19.0189 19.9793 18.6728 19.998C18.3315 20.0165 17.9816 19.9078 17.701 19.6678L17.6985 19.6659L17.6653 19.6367L17.6606 19.6327L12.8193 15.1696C12.676 15.2731 12.5299 15.3714 12.3819 15.4642C12.1813 15.5903 11.9734 15.709 11.7613 15.8173C10.671 16.3753 9.43888 16.6891 8.1363 16.6891V16.6903H8.13369V16.6891C5.88774 16.6885 3.85371 15.7541 2.38202 14.2442C0.91228 12.7365 0.00260419 10.652 0.00113933 8.35082H0V8.34531V8.34264H0.00113933C0.00179038 6.03895 0.912768 3.95262 2.38479 2.44309C3.85469 0.936235 5.8866 0.00267114 8.13076 0.00116862V0H8.13613ZM8.13874 1.87147V1.87264H8.13613H8.13076V1.87147C6.39149 1.87264 4.81498 2.59768 3.6737 3.76781C2.53257 4.93794 1.82505 6.55665 1.82456 8.34281H1.8257V8.34548V8.35099H1.82456C1.8257 10.135 2.53208 11.7512 3.67337 12.9221C4.81417 14.0928 6.3923 14.8185 8.13353 14.8188V14.8177H8.13613H8.14151V14.8188C9.88078 14.8177 11.4566 14.0929 12.5982 12.9225C13.7394 11.7524 14.4469 10.1341 14.4472 8.34815H14.4462V8.34548V8.33997H14.4472C14.4462 6.55598 13.7392 4.93894 12.5986 3.76831C11.4578 2.59768 9.88013 1.87197 8.13874 1.87147Z" fill="white"/>
</g>
<defs>
<clipPath id="clip0_200_44">
<rect width="20" height="20" fill="white"/>
</clipPath>
</defs>
</svg>
