<svg width="28" height="28" viewBox="0 0 28 28" fill="none" xmlns="http://www.w3.org/2000/svg">
<path d="M13.9999 2.33334C7.55659 2.33334 2.33325 7.55668 2.33325 14C2.33325 20.4433 7.55659 25.6667 13.9999 25.6667C20.4432 25.6667 25.6666 20.4433 25.6666 14C25.6666 7.55668 20.4432 2.33334 13.9999 2.33334Z" stroke="white" stroke-width="2" stroke-linecap="round" stroke-linejoin="round"/>
<path d="M4.98291 21.4033C4.98291 21.4033 7.58343 18.0833 14.0001 18.0833C20.4167 18.0833 23.0174 21.4033 23.0174 21.4033" stroke="white" stroke-width="2" stroke-linecap="round" stroke-linejoin="round"/>
<path d="M14.1399 14.28C16.0729 14.28 17.6399 12.713 17.6399 10.78C17.6399 8.84701 16.0729 7.28 14.1399 7.28C12.2068 7.28 10.6399 8.84701 10.6399 10.78C10.6399 12.713 12.2068 14.28 14.1399 14.28Z" stroke="white" stroke-width="2" stroke-linecap="round" stroke-linejoin="round"/>
</svg>
