<svg width="26" height="26" viewBox="0 0 26 26" fill="none" xmlns="http://www.w3.org/2000/svg">
<path d="M16.25 8.9375V6.90625C16.25 6.36753 16.036 5.85087 15.6551 5.46994C15.2741 5.08901 14.7575 4.875 14.2188 4.875H4.46875C3.93003 4.875 3.41337 5.08901 3.03244 5.46994C2.65151 5.85087 2.4375 6.36753 2.4375 6.90625V19.0938C2.4375 19.6325 2.65151 20.1491 3.03244 20.5301C3.41337 20.911 3.93003 21.125 4.46875 21.125H14.2188C14.7575 21.125 15.2741 20.911 15.6551 20.5301C16.036 20.1491 16.25 19.6325 16.25 19.0938V17.0625" stroke="#FF8A00" stroke-width="2.875" stroke-linecap="round" stroke-linejoin="round"/>
<path d="M19.5 8.9375L23.5625 13L19.5 17.0625" stroke="#FF8A00" stroke-width="2.875" stroke-linecap="round" stroke-linejoin="round"/>
<path d="M9.69922 13H23.5626" stroke="#FF8A00" stroke-width="2.875" stroke-linecap="round" stroke-linejoin="round"/>
</svg>
