<svg width="26" height="26" viewBox="0 0 26 26" fill="none" xmlns="http://www.w3.org/2000/svg">
<g clip-path="url(#clip0_78_181)">
<path d="M16.1316 12.9188C21.0747 10.7713 20.0817 0 20.0817 0L13.7792 10.9164C14.8501 11.1593 15.7265 11.9189 16.1316 12.9188Z" fill="#FF8A00"/>
<path d="M13.0419 16.5039C14.3331 16.5039 15.3798 15.4572 15.3798 14.166C15.3798 12.8748 14.3331 11.8281 13.0419 11.8281C11.7507 11.8281 10.704 12.8748 10.704 14.166C10.704 15.4572 11.7507 16.5039 13.0419 16.5039Z" fill="#FF8A00"/>
<path d="M9.9403 12.9492C10.3307 11.9576 11.1827 11.1967 12.2308 10.9335L5.91836 0C5.91836 0 4.9158 10.8753 9.9403 12.9492Z" fill="#FF8A00"/>
<path d="M22.7364 21.4088C21.8913 19.945 20.0195 19.4434 18.5557 20.2885C18.5145 20.3122 18.4744 20.3371 18.4347 20.3624L15.8719 15.9235C15.3427 16.7726 14.4426 17.3674 13.3998 17.4793C14.8001 19.9048 17.3829 24.3783 17.4355 24.4692C18.2806 25.933 20.1524 26.4346 21.6162 25.5894C23.08 24.7443 23.5815 22.8726 22.7364 21.4088ZM21.0755 23.3489C20.9888 23.5616 20.8318 23.7413 20.6343 23.8587C20.4652 23.9593 20.2815 24.0103 20.0888 24.0103H20.0888C19.7058 24.0103 19.3494 23.8049 19.1585 23.4744C19.1574 23.4724 19.1549 23.468 19.1511 23.4615C18.869 22.9728 19.0213 22.3486 19.4969 22.0449L19.5055 22.0394C19.52 22.0302 19.5346 22.0208 19.5496 22.0122C19.716 21.9161 19.8952 21.8677 20.0831 21.8677C20.4659 21.8677 20.8224 22.0731 21.0132 22.4036C21.1794 22.6913 21.2038 23.0342 21.0755 23.3489Z" fill="#FF8A00"/>
<path d="M10.1691 15.8525L7.56536 20.3624C7.52569 20.3371 7.48558 20.3123 7.44442 20.2885C5.98062 19.4434 4.10881 19.9449 3.26369 21.4088C2.41856 22.8726 2.92009 24.7444 4.38395 25.5895C5.84775 26.4346 7.71956 25.9331 8.56469 24.4693C8.61729 24.3781 11.2071 19.8926 12.6061 17.4694C11.568 17.333 10.679 16.7176 10.1691 15.8525ZM6.84894 23.4616C6.8454 23.4677 6.84304 23.4719 6.84185 23.4739C6.65072 23.805 6.29425 24.0103 5.91136 24.0103C5.71854 24.0103 5.53493 23.9593 5.36587 23.8588C5.16845 23.7414 5.01139 23.5618 4.92465 23.3491C4.79632 23.0343 4.82069 22.6914 4.98683 22.4036C5.17765 22.073 5.53412 21.8676 5.91702 21.8676C6.10486 21.8676 6.28405 21.9161 6.44957 22.0116C6.46468 22.0204 6.4796 22.0299 6.49453 22.0394L6.50311 22.0448C6.97877 22.3486 7.13111 22.9729 6.84894 23.4616Z" fill="#FF8A00"/>
</g>
<defs>
<clipPath id="clip0_78_181">
<rect width="26" height="26" fill="white"/>
</clipPath>
</defs>
</svg>
